<svg width="92" height="49" viewBox="0 0 92 49" fill="none" xmlns="http://www.w3.org/2000/svg">
<path d="M23.7051 0H27.8919V25.8461H23.7051V0Z" fill="white"/>
<path d="M42.4526 17.6554C42.4526 21.6597 39.176 22.0238 38.0838 22.0238C35.5353 22.0238 35.1712 19.6576 35.1712 18.3834V8.37262H30.9844V18.2014C30.9844 20.5676 31.7125 22.7518 33.1688 24.0259C34.4431 25.3 36.0814 25.8461 38.0838 25.8461C39.5401 25.8461 41.3604 25.482 42.4526 24.3899V25.8461H46.6394V8.37262H42.4526V17.6554Z" fill="white"/>
<path d="M54.8322 2.00214H50.6454V8.37266H47.5508V12.377H50.6454V25.8461H54.8322V12.377H57.9268V8.37266H54.8322V2.00214Z" fill="white"/>
<path d="M71.0347 20.5677C70.1245 21.2958 68.8502 21.8418 67.576 21.8418C64.6634 21.8418 62.661 19.6576 62.661 16.7454C62.661 13.8331 64.6634 11.831 67.576 11.831C68.8502 11.831 70.1245 12.195 71.0347 13.1051L71.5808 13.6511L74.4934 10.9209L73.7652 10.3749C72.1269 8.91874 69.9425 8.00867 67.576 8.00867C62.479 8.00867 58.6562 11.831 58.6562 16.9274C58.6562 22.0238 62.479 25.8461 67.576 25.8461C69.9425 25.8461 72.1269 24.9361 73.7652 23.4799L74.4934 22.9339L71.5808 20.0217L71.0347 20.5677Z" fill="white"/>
<path d="M89.2386 9.82882C87.9643 8.55471 86.6901 8.00867 84.6877 8.00867C83.2314 8.00867 81.7751 8.37269 80.6829 9.46478V0H76.4961V25.8461H80.6829V16.1993C80.6829 12.195 83.4134 11.831 84.5057 11.831C87.0542 11.831 86.8721 14.1972 86.8721 15.4713V25.6641H91.059V15.6533C91.059 13.2871 90.5128 11.1029 89.2386 9.82882Z" fill="white"/>
<path d="M67.395 19.8397C69.0036 19.8397 70.3076 18.5358 70.3076 16.9274C70.3076 15.3191 69.0036 14.0152 67.395 14.0152C65.7864 14.0152 64.4824 15.3191 64.4824 16.9274C64.4824 18.5358 65.7864 19.8397 67.395 19.8397Z" fill="white"/>
<path d="M17.8805 19.4756C16.4242 20.9317 14.2398 21.8418 11.8733 21.8418C7.32244 21.8418 4.0458 18.2015 4.0458 13.2871C4.0458 8.37268 7.32244 4.73238 12.0554 4.73238C14.2398 4.73238 16.4242 5.64245 18.0625 7.28059L18.6087 7.82663L21.3392 5.09641L20.7931 4.55036C18.4266 2.18417 15.332 0.91006 12.0554 0.91006C5.13801 0.728045 0.0410156 6.1885 0.0410156 13.2871C0.0410156 20.3857 5.13801 25.8461 11.8733 25.8461C15.15 25.8461 18.4266 24.572 20.611 22.2058L21.1572 21.6598L18.4266 18.9296L17.8805 19.4756Z" fill="white"/>
<path d="M6.97257 35.0269L8.43452 39.5263H13.1655L9.33805 42.3071L10.8 46.8065L6.97257 44.0257L3.14513 46.8065L4.60708 42.3071L0.779639 39.5263H5.51061L6.97257 35.0269Z" fill="#00E56D"/>
<path d="M20.994 35.0269L22.456 39.5263H27.187L23.3595 42.3071L24.8215 46.8065L20.994 44.0257L17.1666 46.8065L18.6286 42.3071L14.8011 39.5263H19.5321L20.994 35.0269Z" fill="#00E56D"/>
<path d="M35.0155 35.0269L36.4775 39.5263H41.2085L37.381 42.3071L38.843 46.8065L35.0155 44.0257L31.1881 46.8065L32.65 42.3071L28.8226 39.5263H33.5536L35.0155 35.0269Z" fill="#00E56D"/>
<path d="M49.039 35.0269L50.5009 39.5263H55.2319L51.4045 42.3071L52.8664 46.8065L49.039 44.0257L45.2115 46.8065L46.6735 42.3071L42.846 39.5263H47.577L49.039 35.0269Z" fill="#00E56D"/>
<path d="M63.0605 35.0269L64.5224 39.5263H69.2534L65.4259 42.3071L66.8879 46.8065L63.0605 44.0257L59.233 46.8065L60.695 42.3071L56.8675 39.5263H61.5985L63.0605 35.0269Z" fill="#00E56D"/>
<path d="M73.8326 44.1113V42.6825L77.7709 37.0932H80.0342V42.6765H81.2049V44.1113H80.0342V46.0385H78.2992V44.1113H73.8326ZM78.2992 42.6765V38.8582H78.2872L75.6156 42.6645V42.6765H78.2992ZM81.1812 47.9056L81.6254 44.5796H83.3244L82.4179 47.9056H81.1812ZM87.1129 46.1825C86.5205 46.1825 85.9962 46.0705 85.54 45.8463C85.0877 45.6222 84.7255 45.316 84.4533 44.9278C84.1812 44.5396 84.0191 44.0993 83.967 43.607H85.69C85.7541 43.9552 85.9122 44.2334 86.1643 44.4415C86.4165 44.6496 86.7387 44.7537 87.1309 44.7537C87.7673 44.7537 88.2396 44.4975 88.5477 43.9852C88.8559 43.4729 89.01 42.7985 89.01 41.962H88.998C88.7779 42.3022 88.4857 42.5604 88.1215 42.7365C87.7573 42.9086 87.343 42.9947 86.8788 42.9947C86.3024 42.9947 85.7881 42.8666 85.3358 42.6104C84.8876 42.3503 84.5334 41.9961 84.2732 41.5478C84.0171 41.0995 83.889 40.5872 83.889 40.0109C83.889 39.4025 84.0291 38.8682 84.3092 38.408C84.5934 37.9477 84.9836 37.5895 85.4799 37.3333C85.9802 37.0772 86.5526 36.9491 87.1969 36.9491C88.3136 36.9491 89.1801 37.3333 89.7965 38.1018C90.4128 38.8702 90.721 39.9489 90.721 41.3377C90.721 42.3183 90.5829 43.1728 90.3068 43.9012C90.0346 44.6256 89.6304 45.188 89.0941 45.5882C88.5577 45.9844 87.8974 46.1825 87.1129 46.1825ZM87.1909 41.6018C87.4871 41.6018 87.7533 41.5318 87.9894 41.3917C88.2295 41.2516 88.4177 41.0615 88.5537 40.8214C88.6938 40.5812 88.7639 40.3091 88.7639 40.0049C88.7639 39.7007 88.6958 39.4286 88.5597 39.1884C88.4237 38.9443 88.2376 38.7522 88.0014 38.6121C87.7653 38.472 87.5011 38.402 87.2089 38.402C86.7647 38.402 86.3925 38.556 86.0923 38.8642C85.7921 39.1684 85.642 39.5506 85.642 40.0109C85.642 40.4672 85.7901 40.8474 86.0863 41.1516C86.3825 41.4517 86.7507 41.6018 87.1909 41.6018Z" fill="white"/>
</svg>
