<svg width="120" height="120" viewBox="0 0 120 120" fill="none" xmlns="http://www.w3.org/2000/svg">
<g clip-path="url(#clip0_1768_10422)">
<path d="M0 120C33.1371 120 60 93.1371 60 60C60 26.8629 33.1371 0 0 0V120Z" fill="url(#paint0_linear_1768_10422)"/>
<path d="M30 120C63.1371 120 90 93.1371 90 60C90 26.8629 63.1371 0 30 0V120Z" fill="url(#paint1_linear_1768_10422)"/>
<path d="M60 120C93.1371 120 120 93.1371 120 60C120 26.8629 93.1371 0 60 0V120Z" fill="url(#paint2_linear_1768_10422)"/>
</g>
<defs>
<linearGradient id="paint0_linear_1768_10422" x1="60" y1="60" x2="0" y2="60" gradientUnits="userSpaceOnUse">
<stop stop-color="#00E56D"/>
<stop offset="1" stop-color="#00E56D" stop-opacity="0"/>
</linearGradient>
<linearGradient id="paint1_linear_1768_10422" x1="90" y1="60" x2="30" y2="60" gradientUnits="userSpaceOnUse">
<stop stop-color="#00E56D"/>
<stop offset="1" stop-color="#00E56D" stop-opacity="0"/>
</linearGradient>
<linearGradient id="paint2_linear_1768_10422" x1="120" y1="60" x2="60" y2="60" gradientUnits="userSpaceOnUse">
<stop stop-color="#00E56D"/>
<stop offset="1" stop-color="#00E56D" stop-opacity="0"/>
</linearGradient>
<clipPath id="clip0_1768_10422">
<rect width="120" height="120" fill="white"/>
</clipPath>
</defs>
</svg>
