<svg width="189" height="38" viewBox="0 0 189 38" fill="none" xmlns="http://www.w3.org/2000/svg">
<g id="QuantHealth - Home 1" clip-path="url(#clip0_1617_2792)">
<g id="Clip path group">
<mask id="mask0_1617_2792" style="mask-type:luminance" maskUnits="userSpaceOnUse" x="0" y="0" width="189" height="38">
<g id="a">
<path id="Vector" d="M0 0.493896H188.497V37.5059H0V0.493896Z" fill="white"/>
</g>
</mask>
<g mask="url(#mask0_1617_2792)">
<g id="Group">
<path id="Vector_2" d="M17.4141 37.506C16.2104 37.506 15.0179 37.2561 13.9016 36.7699C12.7913 36.2802 11.7796 35.5623 10.9228 34.656L2.68923 25.9041C1.84028 25.0016 1.16548 23.9262 0.703874 22.7402C0.242272 21.5542 0.00303298 20.2811 0 18.9946C0 16.4062 0.963096 13.9199 2.68923 12.0851L10.9148 3.35161C12.6525 1.51875 14.9852 0.492747 17.4141 0.49292C19.849 0.49292 22.1884 1.51675 23.9135 3.35161L32.139 12.0949C32.988 12.9973 33.6629 14.0727 34.1245 15.2587C34.5861 16.4447 34.8253 17.7178 34.8283 19.0043C34.8271 20.291 34.5887 21.5645 34.127 22.7506C33.6653 23.9367 32.9895 25.0117 32.139 25.9127L23.9135 34.656C23.0593 35.5652 22.0474 36.2835 20.9358 36.7699C19.8216 37.2639 18.6276 37.5142 17.4232 37.506H17.4131H17.4141ZM17.4141 3.28646C15.6791 3.28336 14.0122 4.01546 12.7716 5.32543L4.54605 14.0687C3.93992 14.7135 3.45827 15.4817 3.12901 16.3289C2.79976 17.1762 2.62943 18.0855 2.6279 19.0043C2.6279 20.8566 3.31956 22.6263 4.54605 23.9389L12.7716 32.6822C14.013 33.9908 15.6794 34.7226 17.4141 34.7211C19.1574 34.7211 20.8222 33.9861 22.0567 32.6822L30.2822 23.9389C30.8883 23.2943 31.3699 22.5262 31.6991 21.6792C32.0284 20.8322 32.1988 19.923 32.2004 19.0043C32.1989 18.0855 32.0286 17.1761 31.6993 16.3289C31.3701 15.4817 30.8884 14.7134 30.2822 14.0687L22.0567 5.32543C21.4473 4.67444 20.7238 4.16137 19.9284 3.81629C19.1305 3.46382 18.2763 3.28381 17.4141 3.28646Z" fill="#727272"/>
<path id="Vector_3" d="M22.1528 22.0683L20.2949 24.0421L32.218 36.7146L34.0738 34.7408L22.1528 22.0683ZM58.7504 24.1453C59.3282 24.5727 60.0218 24.7791 60.7208 24.7316C61.0876 24.7305 61.4527 24.6772 61.8066 24.5731V27.6836C61.3165 27.7608 60.822 27.801 60.3267 27.8041C59.2687 27.8482 58.2191 27.5846 57.2877 27.0409C56.4956 26.5403 55.8863 25.7617 55.5615 24.8347C54.3256 24.8626 53.103 24.555 52.0057 23.9401C51.0094 23.3583 50.1952 22.4704 49.6663 21.3887C49.0992 20.1913 48.8163 18.8605 48.843 17.5159C48.8155 16.1707 49.0988 14.8393 49.6673 13.6421C50.1979 12.558 51.0188 11.6719 52.0228 11.0993C53.123 10.4837 54.3488 10.1764 55.5877 10.2058C56.8268 10.1763 58.053 10.4835 59.1535 11.0993C60.154 11.6781 60.9715 12.5666 61.5009 13.6508C62.0723 14.8469 62.3555 16.1791 62.3243 17.5246C62.3587 18.9535 62.035 20.3658 61.3873 21.6123C60.7828 22.7424 59.8586 23.6333 58.7504 24.154V24.1453ZM52.8029 17.5148C52.7406 18.5945 52.998 19.6675 53.5378 20.5787C53.766 20.9327 54.0726 21.2117 54.4325 21.4071C54.7904 21.6025 55.1855 21.6959 55.5887 21.6785C55.9908 21.6959 56.3849 21.6025 56.7448 21.4071C57.1037 21.2117 57.4103 20.9327 57.6375 20.5787C58.1698 19.6639 58.4268 18.5937 58.3734 17.5148C58.4351 16.4354 58.1774 15.3628 57.6375 14.452C57.4084 14.0996 57.1011 13.8148 56.7438 13.6236C56.385 13.4318 55.9878 13.3386 55.5877 13.3522C55.1855 13.3348 54.7914 13.4282 54.4315 13.6236C54.0726 13.8191 53.766 14.0981 53.5378 14.452C53.0049 15.3664 52.7481 16.436 52.8029 17.5148ZM67.4836 10.5228V19.4517C67.4665 19.7319 67.5097 20.0196 67.6063 20.2812C67.7028 20.5418 67.8425 20.7839 68.0265 20.988C68.2195 21.1835 68.4467 21.3333 68.692 21.4353C68.9373 21.5374 69.2087 21.5754 69.4721 21.5656C69.7345 21.5841 70.0059 21.5374 70.2512 21.4353C70.4965 21.3333 70.7237 21.1845 70.9178 20.988C71.1015 20.7843 71.2418 20.5398 71.329 20.2715C71.4164 20.0109 71.4596 19.7221 71.4426 19.4431V10.5131H75.315V19.6113C75.3412 20.5885 75.0959 21.5569 74.6133 22.3853C74.1199 23.1947 73.4118 23.8244 72.5816 24.192C71.5923 24.6385 70.5269 24.8542 69.455 24.8249C68.3829 24.8534 67.3173 24.6378 66.3275 24.192C65.5053 23.8181 64.8042 23.1894 64.3128 22.3853C63.8314 21.555 63.5877 20.5896 63.6121 19.6103V10.5131H67.4746L67.4836 10.5228ZM85.0023 21.6405H80.4914L79.651 24.4992H75.7785L80.4472 10.5228H85.0375L89.7062 24.4992H85.8357L85.0023 21.6405ZM84.2051 18.8937L83.3385 15.858C83.0936 15.0478 82.9004 14.2203 82.7604 13.3815H82.7252C82.5845 14.2186 82.3925 15.0481 82.1472 15.8569L81.2796 18.8937H84.2051ZM91.003 10.5228H95.1902L98.6676 17.2727C98.9652 17.859 99.2366 18.4648 99.4648 19.0793H99.509V10.5131H103.082V24.4895H99.0798L95.3742 17.6169C95.155 17.1989 94.9017 16.6397 94.6121 15.9416H94.577V24.4895H91.003V10.5131V10.5228ZM115.451 13.7539H111.807V24.4992H107.936V13.7539H104.291V10.5228H115.459V13.7539H115.451ZM128.512 24.4992H124.64V18.986H120.435V24.4992H116.563V10.5228H120.435V15.8949H124.64V10.5228H128.512V24.4992ZM140.328 21.5472V24.4992H130.736V10.5228H140.196V13.4738H134.608V15.9134H139.89V18.8101H134.608V21.5472H140.328ZM150.665 21.6405H146.153L145.312 24.4992H141.441L146.11 10.5228H150.7L155.369 24.4992H151.497L150.665 21.6405ZM149.867 18.8937L149 15.858C148.755 15.0477 148.562 14.2203 148.422 13.3815H148.387C148.247 14.22 148.054 15.0471 147.809 15.8569L146.942 18.8937H149.867ZM156.664 10.5228H160.537V21.1932H165.477V24.4992H156.656V10.5228H156.664ZM175.357 13.7539H171.705V24.4992H167.834V13.7539H164.18V10.5228H175.349V13.7539H175.357ZM188.497 24.4992H184.625V18.986H180.421V24.4992H176.549V10.5228H180.421V15.8949H184.625V10.5228H188.497V24.4992Z" fill="#727272"/>
</g>
</g>
</g>
</g>
<defs>
<clipPath id="clip0_1617_2792">
<rect width="189" height="38" fill="white"/>
</clipPath>
</defs>
</svg>
