<?xml version="1.0" encoding="utf-8"?><svg xmlns="http://www.w3.org/2000/svg" xmlns:xlink="http://www.w3.org/1999/xlink"><symbol viewBox="0 0 24 24" id="arrow-alt-right" xmlns="http://www.w3.org/2000/svg">
    <path d="m15.44 10.81 2.689 2.69H4.5V6H3v7.5A1.501 1.501 0 0 0 4.5 15h13.629l-2.69 2.69 1.061 1.06 4.5-4.5-4.5-4.5-1.06 1.06Z"/>
</symbol><symbol viewBox="0 0 24 24" id="arrow-down" xmlns="http://www.w3.org/2000/svg">
    <path d="M12 16.5 4.5 9l1.05-1.05L12 14.4l6.45-6.45L19.5 9 12 16.5Z"/>
</symbol><symbol viewBox="0 0 24 24" id="circle-close" xmlns="http://www.w3.org/2000/svg">
    <g>
        <path d="M12 1.5C6.15 1.5 1.5 6.15 1.5 12S6.15 22.5 12 22.5 22.5 17.85 22.5 12 17.85 1.5 12 1.5ZM12 21c-4.95 0-9-4.05-9-9s4.05-9 9-9 9 4.05 9 9-4.05 9-9 9Z"/>
        <path d="M16.05 17.25 12 13.2l-4.05 4.05-1.2-1.2L10.8 12 6.75 7.95l1.2-1.2L12 10.8l4.05-4.05 1.2 1.2L13.2 12l4.05 4.05-1.2 1.2Z"/>
    </g>
</symbol><symbol viewBox="0 0 24 24" id="circle-plus" xmlns="http://www.w3.org/2000/svg">
    <g>
        <path d="M12 3c4.95 0 9 4.05 9 9s-4.05 9-9 9-9-4.05-9-9 4.05-9 9-9Zm0-1.5C6.225 1.5 1.5 6.225 1.5 12S6.225 22.5 12 22.5 22.5 17.775 22.5 12 17.775 1.5 12 1.5Z"/>
        <path d="M18 11.25h-5.25V6h-1.5v5.25H6v1.5h5.25V18h1.5v-5.25H18v-1.5Z"/>
    </g>
</symbol><symbol viewBox="0 0 24 24" id="dots" xmlns="http://www.w3.org/2000/svg">
    <g>
        <path d="M12 7.5a1.5 1.5 0 1 0 0-3 1.5 1.5 0 0 0 0 3ZM12 13.5a1.5 1.5 0 1 0 0-3 1.5 1.5 0 0 0 0 3ZM12 19.5a1.5 1.5 0 1 0 0-3 1.5 1.5 0 0 0 0 3Z"/>
    </g>
</symbol><symbol viewBox="0 0 24 24" id="layout" xmlns="http://www.w3.org/2000/svg">
    <path d="M21 3H3a1.502 1.502 0 0 0-1.5 1.5v15A1.501 1.501 0 0 0 3 21h18a1.502 1.502 0 0 0 1.5-1.5v-15A1.502 1.502 0 0 0 21 3Zm0 1.5v3H3v-3h18ZM3 9h4.5v10.5H3V9Zm6 10.5V9h12v10.5H9Z"/>
</symbol><symbol viewBox="0 0 24 24" id="layout-sidebar" xmlns="http://www.w3.org/2000/svg">
    <path d="M21 3H3a1.5 1.5 0 0 0-1.5 1.5v15A1.5 1.5 0 0 0 3 21h18a1.5 1.5 0 0 0 1.5-1.5v-15A1.5 1.5 0 0 0 21 3ZM3 4.5h12v15H3v-15Zm18 15h-4.5v-15H21v15Z"/>
</symbol><symbol viewBox="0 0 24 24" id="menu" xmlns="http://www.w3.org/2000/svg">
    <path d="M4.5 7h15v1.5h-15V7Zm0 4.5h15V13h-15v-1.5Zm0 4.5h15v1.5h-15V16Z"/>
</symbol></svg>