<svg width="24" height="24" viewBox="0 0 24 24" fill="none" xmlns="http://www.w3.org/2000/svg">
<g id="CMS Panel Item Icon">
<path id="Vector" d="M21 3H3C2.6023 3.0004 2.221 3.15856 1.93978 3.43978C1.65856 3.721 1.5004 4.1023 1.5 4.5V19.5C1.5004 19.8977 1.65856 20.279 1.93978 20.5602C2.221 20.8414 2.6023 20.9996 3 21H21C21.3977 20.9996 21.779 20.8414 22.0602 20.5602C22.3414 20.279 22.4996 19.8977 22.5 19.5V4.5C22.4996 4.1023 22.3414 3.721 22.0602 3.43978C21.779 3.15856 21.3977 3.0004 21 3ZM21 4.5V7.5H3V4.5H21ZM3 9H7.5V19.5H3V9ZM9 19.5V9H21V19.5H9Z" fill="#727272"/>
</g>
</svg>
