<svg width="114" height="40" viewBox="0 0 114 40" fill="none" xmlns="http://www.w3.org/2000/svg">
<g id="Logo">
<path id="Vector" fill-rule="evenodd" clip-rule="evenodd" d="M10.0317 39.9833L4.72781 33.6851H3.85065V39.9886H0.000670612V25.9324L3.44762 21.5577H7.70399C9.19744 21.5577 10.5554 21.9961 11.6324 22.8409C12.6933 23.6718 13.4444 24.8644 13.7482 26.3855C13.9762 27.5301 13.9078 28.7121 13.5316 29.7801C13.1581 30.8401 12.4948 31.7902 11.5318 32.4958L11.5298 32.4925C10.9886 32.8949 10.3824 33.196 9.73125 33.3939C9.67358 33.4112 9.61523 33.4272 9.55622 33.4432L15.064 39.9833H10.0317ZM40.8657 39.9833L36.4833 27.8213L32.0009 39.9833H27.9028L34.6954 21.549L38.3054 21.565L44.9424 39.9833H40.8657ZM26.4711 39.9833H16.2027L16.1892 26.049L19.6369 21.557H26.8359V25.4334H21.5132L20.0258 27.3702L20.0272 29.0032H26.4711V32.8796H20.0305L20.0339 36.1063H26.4711V39.9833ZM101.366 21.563L94.7461 39.9866H91.1368L84.5393 21.563H88.6133L92.9441 33.6578L97.2897 21.563H101.366ZM66.856 39.982V25.424H61.031V21.557H76.5309V25.424H70.7066V39.982H66.856ZM78.7131 39.9806V21.5577H82.5637V39.9806H78.7131ZM113.633 39.9853H101.767L101.753 26.047L105.218 21.557H114V25.4134H107.094L105.59 27.3629L105.592 29.0139H113.633V32.8702H105.595L105.599 36.1283H113.633V39.9853ZM77.7165 3.9936H72.2886C71.2847 3.9936 69.4761 4.4953 69.4888 5.73522C69.5056 7.3789 71.2733 7.39355 72.5548 7.52214C73.5567 7.62341 74.7491 7.754 75.8677 8.20107C77.2847 8.76806 78.4495 9.75547 78.8479 11.5504C79.316 13.6545 78.6386 15.6066 76.9567 16.9758C75.6765 18.0185 73.9383 18.5622 72.3322 18.5622H66.9043V14.7085H72.3322C73.3032 14.7085 74.9389 14.3687 75.1226 13.1021C75.1944 12.6084 75.0468 12.0114 74.4393 11.7689C73.8062 11.5157 72.9244 11.4205 72.1786 11.3465C69.8134 11.108 67.1819 10.591 66.1022 8.17108C65.5852 7.01378 65.5081 5.51402 65.8749 4.30141C66.7098 1.54774 69.5666 0.140582 72.2886 0.140582H77.7165V3.9936ZM53.0581 0.136585L53.0588 12.6291C53.0588 13.2001 53.319 13.6451 53.7093 13.9603C54.3243 14.4566 55.2249 14.7065 56.1 14.7065V14.7131L59.9098 14.7125V0.136585H63.7598V18.5628L56.1 18.5655V18.5728C54.4262 18.5728 52.6283 18.0365 51.3032 16.9665C50.0478 15.9524 49.2088 14.5059 49.2088 12.6291V0.136585H53.0581ZM0 18.5628V4.6019L3.53614 0.136585H10.8874V4.00826H5.38233L3.84998 5.94309V7.76533H10.0464V11.633H3.84998V18.5628H0ZM25.3605 5.52135C24.3834 4.53927 23.0328 3.9323 21.5414 3.9323C21.08 3.9323 20.6495 3.9836 20.2538 4.08021C19.9661 4.15017 19.6798 4.24944 19.3988 4.37337L16.2241 8.37763C16.1671 8.72075 16.1403 9.00059 16.1403 9.35704C16.1403 10.8555 16.7452 12.2113 17.7223 13.1927C18.6993 14.1735 20.05 14.7811 21.5414 14.7811C23.0328 14.7811 24.3834 14.1735 25.3605 13.1927C26.3383 12.2113 26.9425 10.8548 26.9425 9.35704C26.9425 7.85861 26.3383 6.50209 25.3605 5.52135ZM21.5414 0C24.1139 0 26.4429 1.04804 28.1281 2.74102C29.8141 4.434 30.8575 6.77326 30.8575 9.35704C30.8575 11.9402 29.8141 14.2794 28.1281 15.9724C26.4429 17.6654 24.1139 18.7134 21.5414 18.7134C18.9696 18.7134 16.6399 17.6654 14.9546 15.9724C12.3574 13.364 11.7491 10.0659 12.633 6.60803L16.8874 1.24192C17.7095 0.812178 18.4224 0.495036 19.3364 0.27117C20.0593 0.0939434 20.799 0 21.5414 0ZM47.0166 18.5615C45.1885 18.5615 43.2961 18.6001 41.4847 18.5582C39.0397 18.5009 36.8307 17.4808 35.2192 15.8618C33.5588 14.1948 32.5321 11.8915 32.5321 9.34838C32.5321 6.80457 33.5588 4.50129 35.2192 2.83296C36.879 1.16663 39.1718 0.135252 41.7047 0.135252H47.0166V4.00226H41.7047C40.2347 4.00226 38.9042 4.60057 37.9405 5.56732C36.9782 6.53474 36.382 7.87193 36.382 9.34838C36.382 10.8248 36.9782 12.1607 37.9405 13.1288C38.6775 13.8677 39.6291 14.3913 40.6934 14.5979C41.472 14.7471 42.3927 14.7018 43.1814 14.7012H47.0159L47.0166 18.5615ZM58.8489 39.9839C57.0208 39.9839 55.129 40.0226 53.3177 39.98C50.8719 39.9233 48.663 38.9033 47.0515 37.2842C45.391 35.6166 44.365 33.3126 44.365 30.7702C44.365 28.2264 45.391 25.9224 47.0515 24.2554C48.7112 22.5884 51.0041 21.557 53.537 21.557H58.8489V25.424H53.537C52.067 25.424 50.7365 26.0217 49.7735 26.9898C48.8105 27.9565 48.215 29.293 48.215 30.7702C48.215 32.2459 48.8105 33.5831 49.7735 34.5506C50.5098 35.2894 51.4614 35.8138 52.5257 36.019C53.3043 36.1689 54.2257 36.1236 55.0143 36.1236L58.8489 36.1229V39.9839ZM3.85065 29.7941H7.70868C8.05002 29.7941 8.36119 29.7528 8.63346 29.6708C8.87555 29.5962 9.08746 29.4943 9.26115 29.3643L9.2759 29.3497C9.57835 29.1278 9.78825 28.826 9.90695 28.4882C10.0538 28.0718 10.0793 27.6027 9.9881 27.145C9.87811 26.5933 9.62932 26.1789 9.28596 25.9104C8.89768 25.6059 8.35046 25.4487 7.70399 25.4487H5.29381L3.85065 27.2796V29.7941Z" fill="white"/>
</g>
</svg>
