<svg width="716" height="244" viewBox="0 0 716 244" fill="none" xmlns="http://www.w3.org/2000/svg">
<path fill-rule="evenodd" clip-rule="evenodd" d="M63.006 243.898L29.694 205.479H24.1848V243.931H0.00421191V158.188L21.6534 131.502H48.3865C57.7664 131.502 66.2955 134.176 73.0598 139.33C79.7231 144.398 84.4404 151.673 86.3484 160.951C87.7805 167.934 87.3509 175.144 84.988 181.659C82.6419 188.125 78.4764 193.92 72.4281 198.224L72.4154 198.204C69.0164 200.659 65.2088 202.496 61.1191 203.703C60.7569 203.809 60.3904 203.906 60.0198 204.004L94.6122 243.898H63.006ZM256.666 243.898L229.141 169.71L200.988 243.898H175.249L217.912 131.449L240.584 131.547L282.27 243.898H256.666ZM166.257 243.898H101.764L101.68 158.899L123.333 131.498H168.548V155.144H135.118L125.776 166.958L125.785 176.92H166.257V200.565H125.806L125.827 220.248H166.257V243.898ZM636.648 131.534L595.072 243.918H572.403L530.966 131.534H556.554L583.754 205.312L611.047 131.534H636.648ZM419.902 243.89V155.087H383.318V131.498H480.668V155.087H444.087V243.89H419.902ZM494.373 243.882V131.502H518.558V243.882H494.373ZM713.692 243.91H639.166L639.082 158.887L660.845 131.498H716V155.022H672.626L663.178 166.914L663.191 176.985H713.692V200.508H663.212L663.233 220.382H713.692V243.91ZM488.114 24.3609H454.023C447.718 24.3609 436.358 27.4213 436.438 34.9848C436.544 45.0113 447.646 45.1007 455.695 45.8851C461.988 46.5028 469.477 47.2994 476.502 50.0265C485.402 53.4852 492.718 59.5084 495.22 70.4574C498.16 83.2922 493.906 95.2003 483.342 103.552C475.302 109.913 464.384 113.229 454.297 113.229H420.206V89.7218H454.297C460.396 89.7218 470.669 87.649 471.823 79.9229C472.273 76.9113 471.347 73.2698 467.531 71.7904C463.555 70.246 458.016 69.6648 453.332 69.2137C438.477 67.7587 421.949 64.6049 415.168 49.8436C411.921 42.7841 411.437 33.6355 413.74 26.2386C418.984 9.44119 436.927 0.857551 454.023 0.857551H488.114V24.3609ZM333.242 0.833166L333.247 77.0373C333.247 80.5204 334.881 83.2353 337.332 85.1576C341.194 88.1855 346.851 89.7096 352.348 89.7096V89.7502L376.275 89.7461V0.833166H400.456V113.233L352.348 113.25V113.294C341.835 113.294 330.543 110.023 322.22 103.495C314.335 97.3097 309.066 88.4862 309.066 77.0373V0.833166H333.242ZM0 113.233V28.0716L22.2094 0.833166H68.3804V24.4504H33.8048L24.1806 36.2529V47.3685H63.0987V70.9613H24.1806V113.233H0ZM159.282 33.6802C153.145 27.6895 144.662 23.987 135.295 23.987C132.397 23.987 129.693 24.3 127.208 24.8893C125.401 25.316 123.603 25.9216 121.838 26.6776L101.899 51.1035C101.541 53.1966 101.372 54.9036 101.372 57.0779C101.372 66.2184 105.171 74.4891 111.308 80.4757C117.445 86.4582 125.928 90.1648 135.295 90.1648C144.662 90.1648 153.145 86.4582 159.282 80.4757C165.423 74.4891 169.218 66.2143 169.218 57.0779C169.218 47.9375 165.423 39.6627 159.282 33.6802ZM135.295 0C151.452 0 166.08 6.39302 176.664 16.7202C187.253 27.0474 193.807 41.3169 193.807 57.0779C193.807 72.8349 187.253 87.1044 176.664 97.4316C166.08 107.759 151.452 114.152 135.295 114.152C119.142 114.152 104.51 107.759 93.9257 97.4316C77.6129 81.5202 73.7927 61.4023 79.344 40.309L106.064 7.57571C111.228 4.95429 115.705 3.01972 121.446 1.65414C125.987 0.573055 130.632 0 135.295 0ZM295.297 113.225C283.816 113.225 271.93 113.461 260.553 113.205C245.197 112.855 231.322 106.633 221.201 96.7569C210.773 86.5882 204.324 72.5382 204.324 57.0251C204.324 41.5079 210.773 27.4579 221.201 17.2811C231.626 7.11645 246.026 0.825037 261.935 0.825037H295.297V24.4138H261.935C252.702 24.4138 244.346 28.0635 238.293 33.9606C232.249 39.8619 228.505 48.0188 228.505 57.0251C228.505 66.0314 232.249 74.1802 238.293 80.0855C242.922 84.5927 248.899 87.7872 255.583 89.0471C260.473 89.9575 266.256 89.6811 271.209 89.6771H295.293L295.297 113.225ZM369.612 243.902C358.131 243.902 346.249 244.138 334.872 243.878C319.512 243.532 305.637 237.31 295.516 227.434C285.088 217.261 278.643 203.207 278.643 187.698C278.643 172.181 285.088 158.127 295.516 147.958C305.941 137.789 320.341 131.498 336.25 131.498H369.612V155.087H336.25C327.017 155.087 318.661 158.732 312.612 164.638C306.564 170.535 302.824 178.688 302.824 187.698C302.824 196.7 306.564 204.857 312.612 210.758C317.237 215.266 323.214 218.464 329.898 219.716C334.788 220.63 340.575 220.354 345.529 220.354L369.612 220.35V243.902ZM24.1848 181.744H48.4159C50.5598 181.744 52.5141 181.492 54.2242 180.992C55.7447 180.537 57.0756 179.915 58.1665 179.122L58.2592 179.033C60.1588 177.68 61.4771 175.839 62.2226 173.778C63.145 171.238 63.3051 168.377 62.7322 165.585C62.0415 162.219 60.4789 159.691 58.3224 158.054C55.8837 156.196 52.4467 155.237 48.3865 155.237H33.2488L24.1848 166.406V181.744Z" fill="white"/>
</svg>
