<svg width="115" height="24" viewBox="0 0 115 24" fill="none" xmlns="http://www.w3.org/2000/svg">
<g id="Service Icon Container">
<g id="Service Icon">
<path id="Vector" d="M51.2546 6.356C49.4642 6.356 47.9042 7.40919 46.8969 8.67853V0.125C44.2221 1.52219 41.3355 2.58143 38.3014 3.24198C38.2983 3.24198 38.2953 3.24503 38.2891 3.24503C38.7435 3.47338 39.1551 3.76863 39.5174 4.13088C39.9628 4.57222 40.3098 5.08361 40.5555 5.65591C40.7029 5.99681 40.8042 6.35295 40.8687 6.7152C40.9086 6.93746 40.9331 7.16875 40.9424 7.40004C40.9454 7.45484 40.9454 7.51269 40.9454 7.56749C40.9454 7.77449 40.9424 7.97844 40.9393 8.18544V17.6065C40.9393 19.0189 41.5136 20.3765 42.5485 21.3445C43.9887 22.693 46.037 23.1709 47.3821 23.3505C48.3004 23.4752 49.2278 23.5027 50.1521 23.4296C50.4408 23.4084 50.7295 23.3748 51.015 23.3322C51.9639 23.1709 52.8822 22.8726 53.745 22.4526C56.6686 21.0797 58.1027 18.4162 58.1027 14.7239C58.0873 9.76528 55.127 6.356 51.2546 6.356ZM49.151 22.1664C47.1088 22.1664 46.9153 20.0234 46.9153 15.5153C46.9153 11.0072 47.1088 8.86429 49.151 8.86429C51.1931 8.86429 51.3559 11.0102 51.3559 15.5153C51.3559 20.0234 51.1625 22.1664 49.151 22.1664Z" fill="white"/>
<path id="Vector_2" d="M99.2553 21.2657C98.6166 21.2657 98.0638 20.8943 97.8028 20.3586C97.7475 20.246 97.7045 20.1243 97.6799 19.9994C97.6615 19.9142 97.6492 19.826 97.6461 19.7376C97.6461 19.7164 97.6431 19.692 97.6431 19.6707C97.6431 19.6524 97.6431 19.6341 97.6461 19.6159C97.6431 19.4789 97.6431 19.3419 97.6461 19.208V11.0136C97.6461 10.5509 97.5633 10.0883 97.382 9.65906C97.1702 9.15377 96.8384 8.69107 96.3165 8.21018C95.0911 7.10818 93.0735 6.43555 90.5278 6.43555C85.9397 6.43555 83.0838 8.70022 83.0838 11.4184C83.0838 12.7426 83.9437 13.6193 85.2672 13.6193C86.6553 13.6193 87.6473 12.6482 87.6473 11.0653C87.6473 10.9162 87.6349 10.7336 87.6226 10.5236C87.6042 10.2192 87.5459 9.90866 87.5459 9.60426C87.5459 8.63627 88.2645 7.83573 89.198 7.69268C89.2963 7.67743 89.3976 7.66827 89.499 7.66827C90.5278 7.66827 91.3722 8.46283 91.4459 9.46427C91.4675 9.62867 91.4828 9.79601 91.5013 9.95431C91.5381 10.3135 91.5503 10.6727 91.5503 11.0319V13.1262C91.5503 13.1262 87.939 13.7867 86.3912 14.2372C83.6673 15.0286 81.8707 15.954 81.5146 18.2735C81.2013 20.2916 82.4635 23.4299 86.2438 23.4696C88.3996 23.4908 90.2176 22.2946 91.8359 20.4835C91.8359 20.4804 91.839 20.4804 91.839 20.4774C91.8452 20.4956 91.8544 20.5169 91.8605 20.5352C92.6036 22.0114 94.1422 23.0251 95.9203 23.0251C96.5283 23.0251 97.1087 22.9065 97.64 22.6903C98.2265 22.4499 98.7547 22.0937 99.1877 21.6493C99.3136 21.5214 99.4304 21.3845 99.5409 21.2414C99.4519 21.2535 99.3535 21.2657 99.2553 21.2657ZM91.5565 16.0636C91.5565 16.4989 91.5565 16.9373 91.5412 17.3725C91.535 17.5673 91.5258 17.7621 91.5135 17.9569C91.492 18.2826 91.4797 18.6296 91.4122 18.9554C91.409 18.9766 91.4029 18.9949 91.3968 19.0132C91.2126 19.7559 90.5369 20.3099 89.7293 20.3099C88.7834 20.3099 88.0127 19.5459 88.0127 18.6084C88.0127 18.6023 88.0127 18.5962 88.0127 18.5901C87.9973 18.3983 88.0065 18.1974 88.0188 17.9874C88.0556 17.4485 88.1938 16.9159 88.4702 16.4471C88.9923 15.5553 89.9258 15.0195 90.8839 14.6877C91.1051 14.6116 91.3292 14.5447 91.5534 14.4838V16.0636H91.5565Z" fill="white"/>
<path id="Vector_3" d="M112.441 22.0722C113.854 22.0722 114.999 20.937 114.999 19.5366C114.999 18.1362 113.854 17.001 112.441 17.001C111.028 17.001 109.883 18.1362 109.883 19.5366C109.883 20.937 111.028 22.0722 112.441 22.0722Z" fill="white"/>
<path id="Vector_4" d="M64.769 5.07126C66.1817 5.07126 67.327 3.93604 67.327 2.53563C67.327 1.13524 66.1817 0 64.769 0C63.3561 0 62.2109 1.13524 62.2109 2.53563C62.2109 3.93604 63.3561 5.07126 64.769 5.07126Z" fill="white"/>
<path id="Vector_5" d="M69.1325 22.3972C68.6596 22.3972 68.2296 22.2085 67.9132 21.9071C67.9102 21.9041 67.9071 21.901 67.901 21.8949C67.8979 21.8919 67.8948 21.8888 67.8918 21.8858C67.7873 21.7884 67.6983 21.6696 67.6246 21.5418C67.5018 21.3379 67.4219 21.1066 67.3912 20.863C67.3575 20.6286 67.3636 20.3882 67.3636 20.1507C67.3636 20.1476 67.3636 17.6272 67.3636 15.0886V6.6416C67.2806 6.67199 67.1947 6.7025 67.1118 6.7329C65.2354 7.40565 63.2854 7.92009 61.2739 8.26099C60.5307 8.38573 59.7815 8.48923 59.0229 8.56843C59.0138 8.56843 59.0015 8.57149 58.9922 8.57149C59.2871 8.75713 59.5604 8.97633 59.8092 9.22288C60.2544 9.66422 60.6045 10.1787 60.8471 10.751C60.9914 11.0858 61.0927 11.4358 61.1572 11.7919C61.1603 11.8133 61.1633 11.8315 61.1665 11.8529C61.1696 11.8712 61.1726 11.8924 61.1757 11.9107C61.1818 11.9411 61.1849 11.9747 61.188 12.0051C61.188 12.0142 61.191 12.0203 61.191 12.0295C61.1941 12.0446 61.1941 12.0599 61.1971 12.0751C61.1971 12.0782 61.1971 12.0782 61.1971 12.0782C61.2309 12.3155 61.2494 12.5621 61.2494 12.8239V15.0886H61.2555C61.2555 17.6272 61.2555 20.1476 61.2555 20.1507C61.2555 20.3546 61.2586 20.5616 61.237 20.7656C61.2156 21.1035 61.0989 21.4139 60.9115 21.6727C60.9054 21.6788 60.9024 21.6849 60.8963 21.694C60.8931 21.6971 60.89 21.7032 60.887 21.7062C60.8562 21.7458 60.8256 21.7853 60.7918 21.8218C60.7857 21.8279 60.7795 21.8371 60.7703 21.8432C60.7641 21.8493 60.7611 21.8523 60.755 21.8584C60.4356 22.1902 59.9841 22.3972 59.4867 22.3972C59.3914 22.3972 59.2993 22.388 59.2072 22.3759V23.006H69.4119V22.3759C69.3167 22.388 69.2246 22.3972 69.1325 22.3972Z" fill="white"/>
<path id="Vector_6" d="M78.3599 12.4065C78.3476 14.9817 78.3353 17.493 78.3353 17.6695C78.3445 18.5248 78.4458 19.2371 78.5901 19.8247C78.6547 20.1352 78.7468 20.4365 78.8727 20.7287C78.9679 20.9509 79.0784 21.164 79.2043 21.3649C79.3794 21.6601 79.5576 21.8823 79.7141 22.0437C79.7786 22.1167 79.8432 22.1867 79.9137 22.2538C79.9475 22.2872 80.0305 22.3603 80.1165 22.4333C80.1195 22.4363 80.1195 22.4363 80.1226 22.4394C79.9906 22.5094 79.8523 22.5733 79.711 22.6311C79.0447 22.9112 78.3383 23.0512 77.6105 23.0512C76.8797 23.0512 76.1734 22.9082 75.507 22.6311C74.8651 22.3603 74.2847 21.9767 73.7903 21.4836C73.2959 20.9905 72.9059 20.4182 72.6326 19.782C72.3838 19.1976 72.2426 18.5796 72.2149 17.9404V17.4655L72.2026 9.02467C72.1996 8.91812 72.1965 8.81767 72.1904 8.71722C72.1874 8.67462 72.1842 8.63191 72.1781 8.59236C72.1597 8.18752 72.0706 7.79793 71.9109 7.42652C71.7359 7.01863 71.4872 6.65333 71.1708 6.33989C70.8545 6.02634 70.4829 5.7798 70.0745 5.60624C70.0377 5.59099 69.9978 5.57585 69.9609 5.56059C69.964 5.55754 69.967 5.55754 69.9701 5.55449C73.0472 4.1299 75.8724 2.26702 78.3721 0.0449219V5.53325H79.2043C80.5372 5.53325 81.5445 5.40229 82.2907 5.08569L81.8024 6.70813L78.3905 6.71118C78.3905 6.71118 78.3752 9.58782 78.363 12.3973C78.3599 12.4034 78.3599 12.4065 78.3599 12.4065Z" fill="white"/>
<path id="Vector_7" d="M39.3041 21.2657C38.6654 21.2657 38.1126 20.8943 37.8516 20.3586C37.7963 20.246 37.7533 20.1243 37.7288 19.9994C37.7103 19.9142 37.698 19.826 37.695 19.7376C37.695 19.7164 37.6919 19.692 37.6919 19.6707C37.6919 19.6524 37.6919 19.6341 37.695 19.6159C37.6919 19.4789 37.6919 19.3419 37.695 19.208V11.0136C37.695 10.5509 37.6121 10.0883 37.4309 9.65906C37.219 9.15377 36.8874 8.69107 36.3653 8.21018C35.14 7.10818 33.1223 6.43555 30.5766 6.43555C25.9886 6.43555 23.1327 8.70022 23.1327 11.4184C23.1327 12.7426 23.9925 13.6193 25.3161 13.6193C26.7041 13.6193 27.6961 12.6482 27.6961 11.0653C27.6961 10.9162 27.6838 10.7336 27.6714 10.5236C27.653 10.2192 27.5947 9.90866 27.5947 9.60426C27.5947 8.63627 28.3133 7.83573 29.2468 7.69268C29.3452 7.67743 29.4464 7.66827 29.5478 7.66827C30.5766 7.66827 31.421 8.46283 31.4948 9.46427C31.5163 9.62867 31.5317 9.79601 31.5501 9.95431C31.5869 10.3135 31.5991 10.6727 31.5991 11.0319V13.1262C31.5991 13.1262 27.9878 13.7867 26.44 14.2372C23.7161 15.0286 21.9196 15.954 21.5634 18.2735C21.2501 20.2916 22.5123 23.4299 26.2926 23.4696C28.4484 23.4908 30.2664 22.2946 31.8848 20.4835C31.8848 20.4804 31.8878 20.4804 31.8878 20.4774C31.894 20.4956 31.9032 20.5169 31.9093 20.5352C32.6526 22.0114 34.1911 23.0251 35.9691 23.0251C36.5771 23.0251 37.1575 22.9065 37.6889 22.6903C38.2754 22.4499 38.8035 22.0937 39.2365 21.6493C39.3625 21.5214 39.4792 21.3845 39.5898 21.2414C39.5037 21.2535 39.4055 21.2657 39.3041 21.2657ZM31.6084 16.0636C31.6084 16.4989 31.6084 16.9373 31.593 17.3725C31.5869 17.5673 31.5777 17.7621 31.5654 17.9569C31.5439 18.2826 31.5317 18.6296 31.4641 18.9554C31.461 18.9766 31.4548 18.9949 31.4487 19.0132C31.2645 19.7559 30.5888 20.3099 29.7812 20.3099C28.8354 20.3099 28.0645 19.5459 28.0645 18.6084C28.0645 18.6023 28.0645 18.5962 28.0645 18.5901C28.0492 18.3983 28.0584 18.1974 28.0706 17.9874C28.1075 17.4485 28.2457 16.9159 28.5221 16.4471C29.0442 15.5553 29.9778 15.0195 30.9359 14.6877C31.157 14.6116 31.3811 14.5447 31.6054 14.4838V16.0636H31.6084Z" fill="white"/>
<path id="Vector_8" d="M106.948 12.4065C106.936 14.9817 106.923 17.493 106.923 17.6695C106.933 18.5248 107.034 19.2371 107.178 19.8247C107.243 20.1352 107.335 20.4365 107.461 20.7287C107.556 20.9509 107.666 21.164 107.792 21.3649C107.967 21.6601 108.146 21.8823 108.302 22.0437C108.367 22.1167 108.431 22.1867 108.502 22.2538C108.535 22.2872 108.618 22.3603 108.704 22.4333C108.708 22.4363 108.708 22.4363 108.711 22.4394C108.578 22.5094 108.44 22.5733 108.299 22.6311C107.633 22.9112 106.926 23.0512 106.199 23.0512C105.468 23.0512 104.761 22.9082 104.095 22.6311C103.453 22.3603 102.873 21.9767 102.378 21.4836C101.884 20.9905 101.494 20.4182 101.221 19.782C100.972 19.1976 100.831 18.5796 100.803 17.9404V17.4655L100.791 9.02467C100.788 8.91812 100.785 8.81767 100.778 8.71722C100.775 8.67462 100.772 8.63191 100.766 8.59236C100.748 8.18752 100.659 7.79793 100.499 7.42652C100.324 7.01863 100.075 6.65333 99.7588 6.33989C99.4425 6.02634 99.0709 5.7798 98.6625 5.60624C98.6256 5.59099 98.5857 5.57585 98.5488 5.56059C98.5519 5.55754 98.555 5.55754 98.5581 5.55449C101.635 4.1299 104.46 2.26702 106.96 0.0449219V5.53325H107.792C109.125 5.53325 110.132 5.40229 110.879 5.08569L110.39 6.70813L106.979 6.71118C106.979 6.71118 106.963 9.58782 106.951 12.3973C106.948 12.4034 106.948 12.4065 106.948 12.4065Z" fill="white"/>
<path id="Vector_9" d="M20.1791 22.3944C19.7369 22.3944 19.3315 22.23 19.0244 21.9622C18.88 21.8465 18.7572 21.6943 18.6651 21.5268C18.659 21.5177 18.6559 21.5087 18.6498 21.4995C18.5361 21.2925 18.4624 21.0642 18.4409 20.8176C18.4409 20.8146 18.4409 20.8146 18.4409 20.8115C18.4348 20.7567 18.4286 20.699 18.4255 20.6442C18.4164 20.4828 18.4194 20.3215 18.4194 20.1601V11.6887C18.4194 11.5913 18.4194 11.4939 18.4164 11.3996C18.4132 11.2535 18.4041 11.1135 18.3948 10.9734C18.3795 10.7513 18.3519 10.5351 18.3211 10.3312C18.2567 9.99026 18.1583 9.65535 18.0202 9.33277C17.7745 8.76047 17.4275 8.24602 16.9822 7.80468C16.537 7.36334 16.0179 7.01622 15.4406 6.77578C15.2165 6.68143 14.9831 6.60539 14.7497 6.54449C14.7466 6.54449 14.7466 6.54449 14.7436 6.54449C14.7282 6.54144 14.7159 6.53839 14.7005 6.53229C14.6821 6.52924 14.6667 6.52313 14.6483 6.52008C14.6452 6.52008 14.6391 6.51703 14.6361 6.51703C14.6023 6.51093 14.5715 6.50189 14.5408 6.49579C14.2491 6.43794 13.9512 6.40743 13.6441 6.40144C13.595 6.40144 13.5459 6.40144 13.4968 6.4045C13.4937 6.4045 13.4875 6.4045 13.4844 6.4045C13.4107 6.40743 13.337 6.40743 13.2633 6.41353C13.2603 6.41353 13.2572 6.41353 13.251 6.41353C13.2388 6.41353 13.2235 6.41353 13.2111 6.41658H13.2081C13.1313 6.41963 13.0514 6.42573 12.9747 6.43184C11.258 6.56573 9.62121 7.18673 8.46962 8.66917V0.209961C5.87776 1.54322 3.09549 2.55681 0.168901 3.20527C0.110553 3.22346 0.0552766 3.23872 0 3.25397C0.171972 3.34222 0.340873 3.44266 0.500561 3.54922C0.531271 3.57046 0.55891 3.58876 0.589618 3.61012C0.623399 3.63441 0.657178 3.65882 0.690959 3.68311C0.69403 3.68616 0.697101 3.68921 0.703243 3.69226C0.884427 3.82615 1.0564 3.9753 1.21916 4.13665C1.66445 4.57811 2.01453 5.09244 2.25713 5.66474C2.50894 6.25523 2.63793 6.88538 2.63793 7.53372C2.63793 7.59768 2.63486 7.66468 2.63486 7.72852C2.63178 8.46522 2.61028 9.20181 2.61028 9.93851C2.61028 9.93851 2.61028 20.154 2.61028 20.1571C2.61028 20.2911 2.61028 20.425 2.60722 20.5589C2.60722 20.5772 2.60722 20.5955 2.60722 20.6137C2.60722 21.5725 1.82106 22.3518 0.853719 22.3518C0.75852 22.3518 0.66332 22.3426 0.571192 22.3304L0.561979 23.0093H9.80547V22.5131C9.03774 22.3123 8.47269 21.6212 8.47269 20.7964V10.9216C8.47269 9.94156 9.27421 9.14701 10.263 9.14701C11.2519 9.14701 12.0534 9.94156 12.0534 10.9216V20.8025C12.0534 21.6487 11.4546 22.3579 10.6531 22.5344V23.0123H20.4616V22.3701C20.3726 22.3852 20.2773 22.3944 20.1791 22.3944Z" fill="white"/>
</g>
</g>
</svg>
