<svg width="202" height="202" viewBox="0 0 202 202" fill="none" xmlns="http://www.w3.org/2000/svg">
<g id="Group 482371">
<g id="Group 482370">
<path id="Rectangle 3464191" d="M8.27273 1H1V8.27273" stroke="#2C2C2C"/>
<path id="Rectangle 3464198" d="M8.27273 201H1V193.727" stroke="#2C2C2C"/>
<path id="Rectangle 3464199" d="M193.727 1H201V8.27273" stroke="#2C2C2C"/>
<path id="Rectangle 3464200" d="M193.727 201H201V193.727" stroke="#2C2C2C"/>
</g>
<g id="Group 482401">
<g id="Group 482361">
<path id="Ellipse 3" d="M100.694 64.2775C126.643 64.2775 150.113 68.4686 167.077 75.2266C175.561 78.6062 182.392 82.618 187.095 87.0472C191.797 91.4754 194.336 96.2857 194.336 101.281C194.336 106.277 191.797 111.087 187.095 115.516C182.392 119.945 175.561 123.957 167.077 127.336C150.113 134.094 126.643 138.285 100.694 138.285C74.7441 138.285 51.2741 134.094 34.31 127.336C25.8265 123.957 18.9948 119.945 14.2923 115.516C9.59066 111.087 7.05127 106.277 7.05127 101.281C7.05127 96.2858 9.59066 91.4754 14.2923 87.0472C18.9948 82.618 25.8265 78.6062 34.31 75.2266C51.2741 68.4686 74.7441 64.2775 100.694 64.2775Z" stroke="url(#paint0_linear_1617_2689)"/>
<path id="Ellipse 4" d="M132.74 82.7802C145.715 105.253 153.82 127.674 156.449 145.745C157.764 154.781 157.706 162.704 156.221 168.991C154.737 175.277 151.841 179.881 147.515 182.379C143.188 184.877 137.753 185.083 131.567 183.225C125.38 181.367 118.49 177.457 111.321 171.799C96.9866 160.487 81.6221 142.257 68.6473 119.784C55.6725 97.3111 47.5671 74.89 44.9377 56.8196C43.6227 47.7829 43.6812 39.8606 45.1657 33.5735C46.6499 27.2876 49.546 22.6833 53.8724 20.1855C58.1987 17.6876 63.6343 17.4817 69.8201 19.3392C76.0071 21.1972 82.8973 25.1077 90.0658 30.7648C104.401 42.0772 119.765 60.3072 132.74 82.7802Z" stroke="url(#paint1_linear_1617_2689)"/>
<path id="Ellipse 5" d="M68.6474 82.7797C81.6222 60.3067 96.9867 42.0766 111.321 30.7643C118.49 25.1072 125.38 21.1967 131.567 19.3387C137.753 17.4811 143.189 17.6871 147.515 20.1849C151.841 22.6828 154.737 27.2871 156.222 33.5729C157.706 39.8601 157.765 47.7823 156.45 56.819C153.82 74.8894 145.715 97.3105 132.74 119.784C119.765 142.257 104.401 160.487 90.0659 171.799C82.8974 177.456 76.0073 181.367 69.8202 183.225C63.6344 185.082 58.1989 184.876 53.8725 182.378C49.5461 179.88 46.65 175.276 45.1658 168.99C43.6813 162.703 43.6229 154.781 44.9378 145.744C47.5672 127.674 55.6726 105.253 68.6474 82.7797Z" stroke="url(#paint2_linear_1617_2689)"/>
</g>
<g id="Group 482365">
<path id="Vector" d="M159.474 104.25V114.278H153.955V104.25" fill="#727272"/>
<path id="Vector_2" d="M153.955 104.25L163.293 87.8519H169.155L159.474 104.25H153.955Z" fill="#727272"/>
<path id="Vector_3" d="M153.955 104.25L144.358 87.8519H150.395L156.897 99.0892L153.955 104.25Z" fill="#727272"/>
<path id="Vector_4" d="M134.458 97.0837V114.278H128.856V100.019L134.458 97.0837Z" fill="#727272"/>
<path id="Vector_5" d="M128.856 100.005L143.058 92.6728L140.658 88.579L128.856 94.3977V100.005Z" fill="#727272"/>
<path id="Vector_6" d="M128.857 92.6725H120.299V87.8519H140.232L143.058 92.6725H134.459H128.857Z" fill="#727272"/>
<path id="Vector_7" d="M117.088 87.8519H111.528V114.282H117.088V87.8519Z" fill="#727272"/>
<path id="Vector_8" d="M88.8609 95.7221V114.278H83.5188V87.8519L88.8609 95.7221Z" fill="#727272"/>
<path id="Vector_9" d="M89.6869 87.8519L101.452 105.906V114.278L83.5188 87.8519H89.6869Z" fill="#727272"/>
<path id="Vector_10" d="M101.451 104.549V87.8519H106.794V114.278H101.451V104.549Z" fill="#727272"/>
<path id="Vector_11" d="M59.4922 114.71L72.5824 107.805L70.9684 103.588L62.3505 107.642L59.4922 114.71Z" fill="#727272"/>
<path id="Vector_12" d="M67.5864 94.6964L59.4926 114.71L55.3296 111.095L64.9736 87.8519L67.5864 94.6964Z" fill="#727272"/>
<path id="Vector_13" d="M64.9734 87.8519H70.4914L80.6972 114.278H75.0491L64.9734 87.8519Z" fill="#727272"/>
<path id="Vector_14" d="M34.6163 90.9022C34.6163 94.5821 36.909 96.7716 41.4989 97.9261L46.3627 99.0438C50.7067 100.033 53.352 102.489 53.352 106.491C53.3858 108.234 52.814 109.936 51.7323 111.311C51.7323 107.319 49.6485 105.162 44.6223 103.864L39.8467 102.788C36.0225 101.923 33.0709 99.904 33.0709 95.5572C33.0507 93.8786 33.5944 92.241 34.6163 90.9022Z" fill="#727272"/>
<path id="Vector_15" d="M48.7438 105.511C50.8184 106.826 51.728 108.666 51.728 111.307C50.0108 113.487 46.9941 114.71 43.4484 114.71C37.4801 114.71 33.3032 111.799 32.375 106.739H38.1066C38.8446 109.062 40.7984 110.138 43.4067 110.138C46.5904 110.138 48.7067 108.455 48.7484 105.502" fill="#727272"/>
<path id="Vector_16" d="M37.5958 96.3571C36.6485 95.7991 35.8713 94.9974 35.3467 94.0369C34.8221 93.0764 34.5697 91.993 34.6163 90.9018C36.2731 88.7399 39.1552 87.4198 42.6685 87.4198C48.7481 87.4198 52.266 90.6028 53.1339 95.083H47.6204C47.0124 93.3167 45.4902 91.9414 42.7149 91.9414C39.7493 91.9414 37.7258 93.6525 37.6097 96.3571" fill="#727272"/>
</g>
</g>
</g>
<defs>
<linearGradient id="paint0_linear_1617_2689" x1="100.694" y1="63.7775" x2="100.694" y2="138.785" gradientUnits="userSpaceOnUse">
<stop stop-color="#2C2C2C"/>
<stop offset="1" stop-color="#474747" stop-opacity="0.2"/>
</linearGradient>
<linearGradient id="paint1_linear_1617_2689" x1="172.675" y1="150.949" x2="143.742" y2="25.1578" gradientUnits="userSpaceOnUse">
<stop stop-color="#2C2C2C"/>
<stop offset="1" stop-color="#474747" stop-opacity="0.2"/>
</linearGradient>
<linearGradient id="paint2_linear_1617_2689" x1="172.675" y1="51.6143" x2="143.743" y2="177.406" gradientUnits="userSpaceOnUse">
<stop stop-color="#2C2C2C"/>
<stop offset="1" stop-color="#474747" stop-opacity="0.2"/>
</linearGradient>
</defs>
</svg>
