<svg width="78" height="36" viewBox="0 0 78 36" fill="none" xmlns="http://www.w3.org/2000/svg">
<g id="LOGO FIRSTY 1" clip-path="url(#clip0_1617_2773)">
<g id="Clip path group">
<mask id="mask0_1617_2773" style="mask-type:luminance" maskUnits="userSpaceOnUse" x="0" y="0" width="78" height="36">
<g id="clip0_87_1474">
<path id="Vector" d="M78 0H0V36H78V0Z" fill="white"/>
</g>
</mask>
<g mask="url(#mask0_1617_2773)">
<g id="Group">
<g id="Clip path group_2">
<mask id="mask1_1617_2773" style="mask-type:luminance" maskUnits="userSpaceOnUse" x="0" y="0" width="78" height="36">
<g id="clip1_87_1474">
<path id="Vector_2" d="M78 0H0V36H78V0Z" fill="white"/>
</g>
</mask>
<g mask="url(#mask1_1617_2773)">
<g id="Group_2">
<path id="Vector_3" d="M21.4126 8.14209H15.3759L11.4871 30.2737H17.5237L21.4126 8.14209Z" fill="#727272"/>
<path id="Vector_4" d="M15.7412 3.68425C15.7412 4.528 16.0337 5.21143 16.6131 5.72895L16.6159 5.73176C17.1954 6.24926 17.9726 6.50801 18.9448 6.50801C20.1594 6.50801 21.1121 6.1677 21.8001 5.48425C22.4882 4.80362 22.8336 3.91768 22.8336 2.82643C22.8336 1.95175 22.5411 1.26268 21.9617 0.759247C21.3795 0.255811 20.5911 0.00268555 19.5911 0.00268555C18.4016 0.00268555 17.4628 0.345811 16.7747 1.02643C16.0866 1.70706 15.7412 2.593 15.7412 3.68425Z" fill="#727272"/>
<path id="Vector_5" d="M11.404 0.449951C9.40664 0.449951 7.79092 0.975886 6.56242 2.02495C5.3339 3.07401 4.5149 4.73058 4.11097 6.99465L3.91866 8.09996H1.8434L0.910188 13.5H2.97909L0.0605469 30.2737H6.09721L8.98588 13.5H12.7021L13.6354 8.09996H9.91581L9.98607 7.69215C10.0919 7.06496 10.351 6.58683 10.7549 6.26058C11.1616 5.93152 11.6464 5.7684 12.2146 5.7684C12.7272 5.7684 13.2008 5.89215 13.6326 6.13683L14.5658 0.860573C13.5657 0.587761 12.5127 0.449951 11.404 0.449951Z" fill="#727272"/>
<path id="Vector_6" d="M23.176 8.14208H28.5663L28.2014 9.89989H28.2822C28.8505 9.21927 29.4968 8.72145 30.2266 8.40645C30.9565 8.09427 31.7532 7.93677 32.6168 7.93677C33.238 7.93677 33.8731 8.00427 34.5222 8.14208L33.4274 14.3605C32.7254 14.0061 32.0234 13.829 31.3214 13.829C30.4021 13.829 29.6054 14.1018 28.9313 14.6474C28.2571 15.193 27.8365 15.9833 27.6749 17.0211L25.3655 30.2765H19.2871L23.176 8.14489V8.14208Z" fill="#727272"/>
<path id="Vector_7" d="M32.9435 23.6867L31.8905 29.8235L31.8877 29.8263C33.4282 30.3467 34.9659 30.6054 36.5064 30.6054C38.3171 30.6054 39.8493 30.2623 41.1056 29.5817C42.362 28.901 43.3286 27.9785 44.0028 26.8198C44.6797 25.661 45.0168 24.387 45.0168 22.9948C45.0168 22.0948 44.8357 21.2285 44.4708 20.396C44.1058 19.5635 43.5431 18.6973 42.7882 17.7973L41.1279 15.792C40.9106 15.5192 40.7491 15.266 40.6404 15.0354C40.5318 14.8048 40.4788 14.5517 40.4788 14.2788C40.4788 13.8992 40.6488 13.5701 40.9858 13.2973C41.3229 13.0245 41.7631 12.8895 42.3035 12.8895C43.2506 12.8895 44.1811 13.1735 45.1003 13.7473L46.0336 8.38947C44.7633 8.0351 43.5208 7.85791 42.3063 7.85791C39.9022 7.85791 37.9912 8.47947 36.5733 9.71978C35.1553 10.9601 34.445 12.6701 34.445 14.8526C34.445 15.6963 34.5871 16.5035 34.8712 17.2657C35.1553 18.0307 35.6066 18.7788 36.2278 19.5157L37.6458 21.3579C37.9689 21.7404 38.1973 22.092 38.3338 22.421C38.4703 22.7473 38.5372 23.0342 38.5372 23.2788C38.5372 23.8498 38.3394 24.2885 37.9494 24.5867C37.5566 24.8876 37.0218 25.0367 36.3476 25.0367C35.2389 25.0367 34.1051 24.5867 32.9435 23.6867Z" fill="#727272"/>
<path id="Vector_8" d="M50.9251 3.72363H57.0036L56.2281 8.14208H59.1096L58.1374 13.5421H55.2801L52.3431 30.2736H46.2646L49.2016 13.5421H46.6296L47.6018 8.14208H50.1496L50.9251 3.72363Z" fill="#727272"/>
<path id="Vector_9" d="M57.7611 29.0445L56.7471 34.7313L56.7526 34.7285C58.8614 35.5723 61.0343 35.997 63.2768 35.997C65.1961 35.997 66.9456 35.682 68.5251 35.0548C70.1074 34.4276 71.4361 33.4207 72.517 32.0285C73.5979 30.6392 74.3138 28.8532 74.6648 26.6707L77.9464 8.13916H71.9097L70.0461 18.9813C69.8817 19.9095 69.4973 20.652 68.89 21.2117C68.2827 21.7713 67.5445 22.0498 66.6809 22.0498C65.926 22.0498 65.3716 21.8107 65.0206 21.3326C64.6696 20.8545 64.5749 20.1654 64.7365 19.2654L66.6809 8.13916H60.5635L58.4965 20.0445C58.2263 21.6532 58.3071 23.0567 58.7389 24.2576C59.1706 25.4557 59.8671 26.3642 60.8254 26.9773C61.7836 27.5904 62.9509 27.897 64.3298 27.897C65.1655 27.897 65.9427 27.7845 66.6586 27.551C67.3718 27.3204 68.0292 26.9604 68.6226 26.4682H68.7034L68.5808 27.0813C68.3914 28.1979 67.8036 29.0838 66.8174 29.7392C65.8313 30.3945 64.6362 30.7207 63.2322 30.7207C61.285 30.7207 59.4631 30.1638 57.7611 29.0445Z" fill="#727272"/>
</g>
</g>
</g>
</g>
</g>
</g>
</g>
<defs>
<clipPath id="clip0_1617_2773">
<rect width="78" height="36" fill="white"/>
</clipPath>
</defs>
</svg>
