<svg width="200" height="32" viewBox="0 0 200 32" fill="none" xmlns="http://www.w3.org/2000/svg">
<g id="Current sales  Luxury travel at low prices  Secret Escapes 1" clip-path="url(#clip0_1617_2789)">
<path id="Vector" fill-rule="evenodd" clip-rule="evenodd" d="M105.839 25.5762C109.557 25.5426 112.067 23.9922 113.525 22.7971C114.556 23.2515 115.903 23.8149 118.263 23.8149C121.989 23.8149 125.05 22.0654 125.05 18.3749V18.3695C126.309 22.0639 130.097 23.8029 133.748 23.8029C136.881 23.8029 138.925 22.9162 139.942 22.1733L139.931 22.142C140.757 23.1552 142.212 23.8029 144.043 23.8029C147.091 23.8029 148.543 22.988 149.801 22.1733C150.189 22.988 150.902 23.8029 152.898 23.8029C154.067 23.8029 154.821 23.4882 155.342 23.1813V31.9029C155.342 31.9029 158.754 32.2624 158.754 29.9618V23.3835C164.524 24.8796 170.855 22.3021 172.252 16.2655C172.809 21.0376 176.602 23.8149 181.158 23.8149C184.287 23.8149 186.719 22.5894 187.695 21.8918C188.16 23.6707 191.327 23.8149 192.917 23.8149C196.643 23.8149 199.704 22.0654 199.704 18.3749C199.704 15.003 197.143 13.8398 194.799 12.7748C192.819 11.8756 190.994 11.0463 190.994 9.01669C190.994 7.3152 192.022 6.26073 193.51 6.26073C196.05 6.26073 197.308 9.05261 197.308 10.802V10.79H198.506C198.506 8.72907 198.385 7.49494 197.998 6.09299C197.127 5.58975 195.917 4.96663 193.836 4.96663C190.74 4.96663 188.092 6.408 187.629 9.05772C186.852 7.10945 185.23 4.97859 181.279 4.97859C177.459 4.97859 173.587 7.47779 172.489 12.2291C171.952 7.54743 168.312 4.96663 164.004 4.96663C161.342 4.96663 159.612 6.09307 158.754 6.59623C158.754 6.28469 158.56 5.39798 158.282 4.96663C156.915 4.96663 153.805 5.97318 152.68 6.32065L152.838 7.25524C153.306 7.13124 153.753 6.99166 154.241 6.99166C155.342 6.99166 155.342 8.08206 155.342 11.8804V22.404C155.247 22.424 155.131 22.4369 154.979 22.4369C152.826 22.4369 152.826 19.5253 152.826 16.8053V11.2454C152.826 7.27924 151.894 4.95467 147.418 4.95467C143.269 4.95467 140.752 7.55482 139.579 9.1125C139.845 9.81947 140.16 10.2029 140.595 10.6702H140.91C140.969 10.5556 141.026 10.4396 141.086 10.325C141.822 8.87353 142.879 6.78796 145.773 6.78796C148.712 6.78796 149.414 9.00465 149.414 11.5689V12.4675C149.163 12.5408 148.894 12.6168 148.612 12.6967L148.612 12.6968L148.609 12.6977C145.01 13.7153 139.18 15.3645 139.18 20.0404C139.18 20.5015 139.271 20.939 139.444 21.3416C138.772 21.7123 137.289 22.4489 135.865 22.4489C131.401 22.4489 128.219 19.5371 128.219 13.4022C128.219 9.01669 130.578 6.79993 133.397 6.79993C135.937 6.79993 137.389 8.11798 137.982 8.93276H138.224C138.805 8.0341 139.24 6.87185 139.24 6.09299C138.333 5.39802 136.579 4.96663 134.691 4.96663C128.471 4.96663 124.193 9.82263 124.637 16.2812C123.82 14.4446 121.92 13.5815 120.145 12.7748C118.165 11.8756 116.339 11.0463 116.339 9.01669C116.339 7.3152 117.355 6.26073 118.844 6.26073C121.384 6.26073 122.642 9.05261 122.642 10.802V10.79H123.864C123.864 8.72907 123.743 7.49494 123.356 6.09299C122.485 5.58975 121.275 4.96663 119.194 4.96663C117.502 4.96663 115.943 5.39741 114.802 6.22095C113.842 3.44467 111.739 0.11377 105.996 0.11377C99.9108 0.11377 93.7051 4.84678 93.7051 13.7137C93.7051 21.1667 99.1608 25.6361 105.839 25.5762ZM112.529 17.4882C112.529 18.6533 112.622 20.0755 112.938 21.4681C112.02 22.1969 110.625 23.1199 108.488 23.1199C101.339 23.1199 98.7982 16.925 98.5801 13.6658C102.54 12.7478 107.719 11.3941 112.977 9.12214C112.937 9.37204 112.916 9.6325 112.916 9.90335C112.916 13.2168 115.296 14.2874 117.568 15.3093C119.642 16.2424 121.626 17.1349 121.626 19.657C121.626 21.0229 120.61 22.5327 118.844 22.5327C115.71 22.5327 114.38 20.0164 113.593 17.4882H112.529ZM110.545 8.34564C106.831 9.55585 102.379 10.6582 98.5682 11.3412C98.5682 7.5069 99.9474 1.94709 104.447 1.93511C108.476 1.93511 109.807 5.08648 110.545 8.34564ZM148.845 14.2889C146.607 14.2889 142.773 15.2595 142.773 18.9141C142.773 21.1308 144.188 22.4489 146.414 22.4489C148.144 22.4489 149.124 21.2386 149.39 20.8552V14.2889H148.845ZM187.456 20.7942C187.249 19.6241 187.183 18.4657 187.183 17.4882H188.235C189.022 20.0164 190.352 22.5327 193.485 22.5327C195.252 22.5327 196.268 21.0229 196.268 19.657C196.268 17.1349 194.284 16.2424 192.21 15.3093C190.231 14.4193 188.17 13.4923 187.671 11.079C183.36 13.1079 179.035 14.2462 175.787 14.9958C175.944 17.4043 177.831 21.9935 183.118 21.9935C185.392 21.9935 186.849 21.1186 187.456 20.7942ZM184.654 11.0657C181.908 11.9643 178.605 12.7791 175.787 13.2824C175.787 10.4426 176.803 6.33265 180.142 6.33265C183.13 6.33265 184.11 8.65722 184.654 11.0657ZM163.109 22.4489C167.028 22.4489 168.94 19.2616 168.94 14.2889C168.94 9.19642 165.577 6.78796 162.044 6.78796C160.362 6.78796 159.382 7.41109 158.754 7.68663V21.0469C159.664 21.7119 160.661 22.4369 163.109 22.4489Z" fill="#727272"/>
<path id="Vector_2" fill-rule="evenodd" clip-rule="evenodd" d="M78.0151 3.7682V10.2662C77.3158 7.84179 75.4058 5.03832 70.4059 5.03832C67.7689 5.03832 65.372 5.72476 63.5655 7.1123C63.0947 6.24316 62.2543 5.03832 60.3285 5.03832C58.3785 5.03832 57.0197 6.49409 55.7435 7.75832C55.6228 6.44026 55.5862 6.09276 55.3082 5.03832C52.687 5.50034 51.0139 5.86141 47.9678 6.73345C46.8974 5.17371 43.8374 5.03832 41.9524 5.03832C36.7781 5.03832 33.8612 7.6011 32.354 10.2075C31.6408 7.79672 29.7217 5.03832 24.7619 5.03832C18.4693 5.03832 13.9604 8.99966 14.6195 15.8067C14.0757 14.8144 13.1572 13.866 11.7932 13.2342C6.38566 10.7539 6.3857 9.66354 6.3857 8.72891C6.3857 6.78777 8.10393 6.78777 8.38178 6.78777C10.9707 6.78777 12.0594 10.0829 12.1804 11.1733V11.1613H14.0555C14.0555 9.53169 14.0555 7.74632 13.6684 6.11672C9.47458 4.14522 0.494158 4.35093 0.494158 10.4664C0.494158 13.8234 3.2101 15.1486 5.63435 16.3314C7.19016 17.0906 9.36162 18.256 9.36162 20.0565C9.36162 21.1469 9.04712 22.1251 7.08732 22.1251C5.23639 22.1251 3.01047 20.184 2.57496 16.6492H0.336914C0.336914 18.794 0.687708 21.0827 0.96595 22.5565C2.92575 23.4432 4.6557 23.8745 7.00262 23.8745C11.3254 23.8745 15.0404 22.3979 15.2332 18.416C16.6761 22.0605 20.3046 23.8745 24.6771 23.8745C27.6827 23.8745 30.7827 22.9493 32.9834 20.8551C34.4579 22.5292 37.0111 23.8745 41.4324 23.8745C45.1582 23.8745 47.977 21.9694 48.4124 21.6578L47.9889 20.7712C47.2028 20.9269 46.2955 21.0827 44.7712 21.0827C41.0451 21.0827 37.8272 18.5904 37.8272 13.0785C37.8272 9.78335 38.8797 7.21912 40.9243 7.21912C42.9324 7.21912 44.7351 9.66354 45.2793 10.4064H45.872C46.7355 9.64198 47.2612 8.94445 47.5893 8.14175H48.5335C49.6343 8.14175 49.6343 9.57965 49.6343 12.1798L49.5859 23.8506C49.5859 23.8506 55.9735 24.5216 55.9612 20.2559L56.0097 18.6024V9.16023C57.1447 9.2899 58.2012 9.75855 59.1909 10.299C59.7766 10.6188 60.2778 10.8924 60.8024 10.9387C60.4174 12.0203 60.2078 13.2523 60.2078 14.6362C60.2078 20.8071 64.6355 23.8745 70.3212 23.8745C74.7128 23.8745 77.3162 22.0293 78.4535 21.0227C79.5516 23.8626 82.367 23.8626 82.842 23.8626C87.1608 23.8626 88.9997 22.5325 90.137 21.8376L89.8585 20.8311C89.4355 20.9389 88.7701 21.1786 88.0197 21.1786C84.4512 21.1786 84.4147 17.7995 84.4147 13.7255V7.35097C85.6732 7.30304 87.5116 7.11131 88.8062 6.91958V5.91306C87.1974 5.79329 86.1447 5.75729 84.4147 5.60152L84.4028 0.161565C84.4028 0.161565 78.0151 -0.5095 78.0151 3.7682ZM78.0151 12.373C74.8632 13.6574 71.0593 14.6643 67.5024 15.415C67.8897 17.8594 69.0751 21.0467 73.9385 21.0827C75.3735 21.0827 76.6782 20.7655 78.037 20.135C77.9816 17.5486 78.0151 14.9598 78.0151 12.373ZM21.8584 15.415C25.0088 14.75 28.3531 13.8841 31.2665 12.8024C30.6054 15.2192 31.0077 18.0434 32.4176 20.1241C31.7493 20.4196 30.4429 21.0827 28.2943 21.0827C23.4311 21.0467 22.2455 17.8594 21.8584 15.415ZM21.5076 13.4259C23.5549 13.237 24.9256 12.9902 26.8426 12.4914C26.77 11.401 26.4071 6.78777 23.8182 6.78777C20.8984 6.78777 21.4366 11.9617 21.5076 13.4259ZM72.4747 12.4914C70.5508 12.9946 69.0993 13.1983 67.1397 13.4259C67.0835 12.0851 66.4362 6.78777 69.4501 6.78777C72.0389 6.78777 72.402 11.401 72.4747 12.4914Z" fill="#727272"/>
</g>
<defs>
<clipPath id="clip0_1617_2789">
<rect width="200" height="32" fill="white"/>
</clipPath>
</defs>
</svg>
