<svg width="202" height="202" viewBox="0 0 202 202" fill="none" xmlns="http://www.w3.org/2000/svg">
<path d="M8.27273 1H1V8.27273" stroke="#2C2C2C"/>
<path d="M8.27273 201H1V193.727" stroke="#2C2C2C"/>
<path d="M193.727 1H201V8.27273" stroke="#2C2C2C"/>
<path d="M193.727 201H201V193.727" stroke="#2C2C2C"/>
<path fill-rule="evenodd" clip-rule="evenodd" d="M26.686 57.5697L21.5649 51.6517H20.718V57.5747H17.0006V44.367L20.3288 40.2564H24.4385C25.8805 40.2564 27.1917 40.6683 28.2316 41.4622C29.2559 42.2428 29.9811 43.3635 30.2745 44.7927C30.4946 45.8683 30.4286 46.9789 30.0653 47.9824C29.7047 48.9785 29.0643 49.8712 28.1345 50.5342L28.1325 50.5311C27.61 50.9092 27.0246 51.1922 26.3959 51.3781C26.3402 51.3944 26.2839 51.4094 26.2269 51.4244L31.5449 57.5697H26.686ZM56.4575 57.5697L52.2261 46.1419L47.8982 57.5697H43.9413L50.4999 40.2482L53.9854 40.2633L60.3937 57.5697H56.4575ZM42.5589 57.5697H32.6443L32.6314 44.4766L35.9602 40.2558H42.9111V43.8981H37.7719L36.3357 45.718L36.337 47.2525H42.5589V50.8948H36.3403L36.3435 53.9268H42.5589V57.5697ZM114.873 40.2614L108.481 57.5729H104.996L98.6262 40.2614H102.56L106.741 51.626L110.937 40.2614H114.873ZM81.5522 57.5685V43.8893H75.928V40.2558H90.8937V43.8893H85.2701V57.5685H81.5522ZM93.0007 57.5672V40.2564H96.7186V57.5672H93.0007ZM126.717 57.5716H115.26L115.247 44.4747L118.593 40.2558H127.072V43.8793H120.404L118.951 45.7111L118.953 47.2625H126.717V50.886H118.956L118.96 53.9474H126.717V57.5716ZM92.0385 23.7525H86.7976C85.8283 23.7525 84.0819 24.2239 84.0943 25.389C84.1104 26.9335 85.8173 26.9472 87.0546 27.0681C88.022 27.1632 89.1733 27.2859 90.2533 27.706C91.6215 28.2388 92.7462 29.1666 93.1308 30.8532C93.5828 32.8302 92.9288 34.6645 91.3049 35.9511C90.0688 36.9308 88.3904 37.4417 86.8397 37.4417H81.5988V33.8206H86.8397C87.7773 33.8206 89.3565 33.5013 89.5339 32.3112C89.6032 31.8473 89.4608 31.2864 88.8741 31.0585C88.2629 30.8206 87.4114 30.7311 86.6914 30.6616C84.4077 30.4375 81.8668 29.9516 80.8244 27.6778C80.3251 26.5904 80.2507 25.1812 80.6049 24.0418C81.411 21.4543 84.1694 20.1321 86.7976 20.1321H92.0385V23.7525ZM68.2298 20.1283L68.2304 31.8667C68.2304 32.4032 68.4817 32.8214 68.8585 33.1176C69.4523 33.584 70.3219 33.8187 71.1669 33.8187V33.825L74.8453 33.8244V20.1283H78.5626V37.4423L71.1669 37.4448V37.4517C69.5507 37.4517 67.8147 36.9477 66.5353 35.9423C65.3231 34.9895 64.5131 33.6303 64.5131 31.8667V20.1283H68.2298ZM17 37.4423V24.3241L20.4143 20.1283H27.5122V23.7663H22.1969L20.7173 25.5843V27.2966H26.7002V30.9308H20.7173V37.4423H17ZM41.4866 25.1881C40.5432 24.2653 39.2391 23.6949 37.7991 23.6949C37.3536 23.6949 36.9379 23.7431 36.5559 23.8339C36.2781 23.8996 36.0016 23.9929 35.7303 24.1094L32.665 27.8719C32.61 28.1943 32.5841 28.4573 32.5841 28.7922C32.5841 30.2002 33.1682 31.4742 34.1116 32.3964C35.055 33.3179 36.359 33.8889 37.7991 33.8889C39.2391 33.8889 40.5432 33.3179 41.4866 32.3964C42.4307 31.4742 43.0141 30.1996 43.0141 28.7922C43.0141 27.3842 42.4307 26.1096 41.4866 25.1881ZM37.7991 20C40.2829 20 42.5317 20.9848 44.1589 22.5756C45.7867 24.1663 46.7942 26.3644 46.7942 28.7922C46.7942 31.2194 45.7867 33.4174 44.1589 35.0082C42.5317 36.599 40.2829 37.5838 37.7991 37.5838C35.3159 37.5838 33.0665 36.599 31.4393 35.0082C28.9315 32.5573 28.3443 29.4583 29.1977 26.2091L33.3054 21.167C34.0993 20.7632 34.7876 20.4652 35.6701 20.2548C36.3681 20.0883 37.0823 20 37.7991 20ZM62.3964 37.4411C60.6313 37.4411 58.8041 37.4774 57.0552 37.4379C54.6944 37.3841 52.5615 36.4256 51.0056 34.9043C49.4023 33.3379 48.411 31.1737 48.411 28.7841C48.411 26.3938 49.4023 24.2296 51.0056 22.662C52.6081 21.0962 54.8219 20.1271 57.2676 20.1271H62.3964V23.7607H57.2676C55.8482 23.7607 54.5636 24.3229 53.6331 25.2313C52.704 26.1403 52.1283 27.3967 52.1283 28.7841C52.1283 30.1714 52.704 31.4266 53.6331 32.3363C54.3447 33.0305 55.2635 33.5226 56.2911 33.7167C57.0429 33.8569 57.9319 33.8144 58.6934 33.8137H62.3958L62.3964 37.4411ZM73.821 57.5703C72.0559 57.5703 70.2293 57.6067 68.4804 57.5666C66.1189 57.5134 63.986 56.5549 62.4301 55.0336C60.8269 53.4666 59.8362 51.3017 59.8362 48.9127C59.8362 46.5225 60.8269 44.3576 62.4301 42.7913C64.0327 41.2249 66.2465 40.2558 68.6921 40.2558H73.821V43.8893H68.6921C67.2728 43.8893 65.9881 44.4509 65.0583 45.3606C64.1285 46.2689 63.5535 47.5248 63.5535 48.9127C63.5535 50.2994 64.1285 51.5559 65.0583 52.4649C65.7693 53.1592 66.6881 53.6519 67.7157 53.8447C68.4674 53.9856 69.3571 53.943 70.1186 53.943L73.821 53.9424V57.5703ZM20.718 47.9956H24.443C24.7726 47.9956 25.0731 47.9568 25.336 47.8798C25.5697 47.8096 25.7743 47.7139 25.942 47.5918L25.9563 47.578C26.2483 47.3695 26.451 47.0859 26.5656 46.7685C26.7074 46.3773 26.732 45.9365 26.6439 45.5064C26.5377 44.9881 26.2975 44.5987 25.966 44.3464C25.5911 44.0602 25.0627 43.9125 24.4385 43.9125H22.1114L20.718 45.6329V47.9956Z" fill="#727272"/>
<g clip-path="url(#clip0_1617_2722)">
<path d="M89.1455 181.497L76.0732 158.762L63.001 181.497H89.1455ZM102.33 180.462L113.255 159.796H108.53L100.994 174.804L93.4575 159.796H88.7321L99.6567 180.462H102.33ZM176.781 159.796V180.462H172.869V159.796H176.781ZM155.005 172.748C155.005 171.138 155.341 169.721 156.014 168.499C156.686 167.276 157.624 166.335 158.826 165.675C160.028 165.015 161.434 164.686 163.043 164.686C164.47 164.686 165.753 164.996 166.894 165.617C168.035 166.238 168.942 167.16 169.614 168.382C170.287 169.605 170.633 171.099 170.653 172.865V173.767H159.131C159.213 175.048 159.59 176.057 160.262 176.794C160.955 177.512 161.882 177.871 163.043 177.871C163.777 177.871 164.449 177.677 165.06 177.289C165.671 176.901 166.13 176.377 166.436 175.717L170.44 176.008C169.95 177.464 169.034 178.628 167.689 179.501C166.344 180.374 164.795 180.811 163.043 180.811C161.434 180.811 160.028 180.481 158.826 179.821C157.624 179.162 156.686 178.22 156.014 176.998C155.341 175.775 155.005 174.359 155.005 172.748ZM166.619 171.293C166.476 170.032 166.079 169.11 165.427 168.528C164.775 167.926 163.98 167.625 163.043 167.625C161.964 167.625 161.087 167.946 160.415 168.586C159.743 169.226 159.325 170.129 159.162 171.293H166.619ZM148.406 168.528C149.057 169.052 149.465 169.779 149.628 170.711L153.662 170.507C153.52 169.323 153.102 168.295 152.409 167.422C151.717 166.548 150.82 165.879 149.72 165.413C148.64 164.928 147.448 164.686 146.144 164.686C144.534 164.686 143.129 165.015 141.926 165.675C140.724 166.335 139.787 167.276 139.115 168.499C138.442 169.721 138.106 171.138 138.106 172.748C138.106 174.359 138.442 175.775 139.115 176.998C139.787 178.22 140.724 179.162 141.926 179.821C143.129 180.481 144.534 180.811 146.144 180.811C147.489 180.811 148.711 180.568 149.812 180.083C150.912 179.579 151.808 178.87 152.501 177.958C153.194 177.046 153.611 175.979 153.754 174.757L149.689 174.582C149.547 175.61 149.149 176.406 148.497 176.969C147.845 177.512 147.061 177.784 146.144 177.784C144.881 177.784 143.903 177.347 143.21 176.474C142.517 175.601 142.171 174.359 142.171 172.748C142.171 171.138 142.517 169.896 143.21 169.023C143.903 168.149 144.881 167.713 146.144 167.713C147.02 167.713 147.774 167.984 148.406 168.528ZM128.56 165.034H132.2L132.306 168.003C132.564 167.163 132.924 166.51 133.384 166.045C134.051 165.371 134.981 165.034 136.175 165.034H137.661V168.212H136.144C135.295 168.212 134.597 168.328 134.051 168.559C133.525 168.79 133.121 169.156 132.838 169.657C132.575 170.157 132.443 170.793 132.443 171.563V180.462H128.56V165.034ZM111.769 168.499C111.096 169.721 110.76 171.138 110.76 172.748C110.76 174.359 111.096 175.775 111.769 176.998C112.441 178.22 113.378 179.162 114.58 179.821C115.783 180.481 117.188 180.811 118.798 180.811C120.55 180.811 122.099 180.374 123.444 179.501C124.788 178.628 125.705 177.464 126.194 176.008L122.19 175.717C121.885 176.377 121.427 176.901 120.815 177.289C120.204 177.677 119.532 177.871 118.798 177.871C117.637 177.871 116.71 177.512 116.017 176.794C115.345 176.057 114.968 175.048 114.886 173.767H126.408V172.865C126.388 171.099 126.042 169.605 125.369 168.382C124.697 167.16 123.79 166.238 122.649 165.617C121.508 164.996 120.224 164.686 118.798 164.686C117.188 164.686 115.783 165.015 114.58 165.675C113.378 166.335 112.441 167.276 111.769 168.499ZM121.182 168.528C121.834 169.11 122.231 170.032 122.374 171.293H114.917C115.08 170.129 115.497 169.226 116.17 168.586C116.842 167.946 117.718 167.625 118.798 167.625C119.735 167.625 120.53 167.926 121.182 168.528Z" fill="#727272"/>
</g>
<line x1="62.2085" y1="105.719" x2="17" y2="105.719" stroke="#2C2C2C"/>
<line x1="40.104" y1="82.6152" x2="40.104" y2="127.824" stroke="#2C2C2C"/>
<line x1="120.204" y1="105.719" x2="74.9956" y2="105.719" stroke="#2C2C2C"/>
<line x1="98.0996" y1="82.6152" x2="98.0996" y2="127.824" stroke="#2C2C2C"/>
<line x1="178.199" y1="105.719" x2="132.991" y2="105.719" stroke="#2C2C2C"/>
<line x1="156.095" y1="82.6152" x2="156.095" y2="127.824" stroke="#2C2C2C"/>
<defs>
<clipPath id="clip0_1617_2722">
<rect width="114.546" height="22.7343" fill="white" transform="translate(63 158.762)"/>
</clipPath>
</defs>
</svg>
