<svg width="202" height="202" viewBox="0 0 202 202" fill="none" xmlns="http://www.w3.org/2000/svg">
<rect width="202" height="202" fill="#333333"/>
<g id="CMS_Screen">
<rect x="-128.5" y="-1118.5" width="1359" height="1851" rx="39.5" fill="black" fill-opacity="0.4"/>
<rect x="-128.5" y="-1118.5" width="1359" height="1851" rx="39.5" stroke="#2C2C2C"/>
<g id="Preview_Section">
<g clip-path="url(#clip0_981_203)">
<rect x="-105" y="-1095" width="972" height="1804" rx="16" fill="white"/>
<g id="Preview">
<rect width="972" height="1808" transform="translate(-105 -1095)" fill="black"/>
<g id="Group 482404">
<g id="Group 482403">
<g id="Frame 1116602237">
<g id="Card_1">
<rect x="-25.5" y="-26.5" width="254" height="379" rx="15.5" stroke="#2C2C2C"/>
<g id="Frame 1116602181">
<g id="Group 482371">
<g id="Group 482369">
<g id="Group 482362">
<path id="Arrow 3" d="M90.4518 174.643C90.728 174.643 90.9518 174.419 90.9518 174.143V169.643C90.9518 169.367 90.728 169.143 90.4518 169.143C90.1757 169.143 89.9518 169.367 89.9518 169.643L89.9518 173.643L85.9518 173.643C85.6757 173.643 85.4518 173.867 85.4518 174.143C85.4518 174.419 85.6757 174.643 85.9518 174.643H90.4518ZM22.9799 107.378L90.0983 174.496L90.8054 173.789L23.687 106.671L22.9799 107.378Z" fill="#2C2C2C"/>
<path id="Arrow 4" d="M98.6592 141.461C98.9354 141.461 99.1592 141.237 99.1592 140.961L99.1592 136.461C99.1592 136.185 98.9354 135.961 98.6592 135.961C98.3831 135.961 98.1592 136.185 98.1592 136.461V140.461H94.1592C93.8831 140.461 93.6592 140.685 93.6592 140.961C93.6592 141.237 93.8831 141.461 94.1592 141.461L98.6592 141.461ZM56.1616 99.1703L98.3057 141.314L99.0128 140.607L56.8687 98.4632L56.1616 99.1703Z" fill="#2C2C2C"/>
<path id="Arrow 5" d="M109.989 111.401C110.265 111.401 110.489 111.177 110.489 110.901V106.401C110.489 106.125 110.265 105.901 109.989 105.901C109.713 105.901 109.489 106.125 109.489 106.401V110.401H105.489C105.213 110.401 104.989 110.625 104.989 110.901C104.989 111.177 105.213 111.401 105.489 111.401H109.989ZM86.2219 87.8409L109.635 111.254L110.342 110.547L86.929 87.1338L86.2219 87.8409Z" fill="#2C2C2C"/>
<path id="Arrow 6" d="M138.488 98.5108C138.765 98.5108 138.988 98.287 138.988 98.0108L138.988 93.5108C138.988 93.2347 138.765 93.0108 138.488 93.0108C138.212 93.0108 137.988 93.2347 137.988 93.5108V97.5108H133.988C133.712 97.5108 133.488 97.7347 133.488 98.0108C133.488 98.287 133.712 98.5108 133.988 98.5108L138.488 98.5108ZM99.1125 59.3421L138.135 98.3644L138.842 97.6573L99.8196 58.635L99.1125 59.3421Z" fill="#2C2C2C"/>
<path id="Arrow 7" d="M167.768 86.4002C168.044 86.4002 168.268 86.1764 168.268 85.9002L168.268 81.4002C168.268 81.1241 168.044 80.9002 167.768 80.9002C167.491 80.9002 167.268 81.1241 167.268 81.4002L167.268 85.4002L163.268 85.4002C162.991 85.4002 162.768 85.6241 162.768 85.9002C162.768 86.1764 162.991 86.4002 163.268 86.4002L167.768 86.4002ZM111.222 30.0617L167.414 86.2538L168.121 85.5467L111.929 29.3546L111.222 30.0617Z" fill="#2C2C2C"/>
</g>
<path id="Vector" fill-rule="evenodd" clip-rule="evenodd" d="M90.0912 23.7273L69.7851 61.9091H50.714L59.211 46.085H58.8284C51.8181 54.8396 41.358 60.6017 26.4548 61.9091V46.3045C26.4548 46.3045 35.9887 45.7622 41.5929 40.0937H26.4582V23.7273H43.4722V37.1884H43.8547L50.808 23.7273H63.6742V37.1045H64.0568L71.2718 23.7273H90.0912Z" fill="#727272"/>
<path id="b-shape" fill-rule="evenodd" clip-rule="evenodd" d="M134.636 132.633C134.636 130.225 136.597 128.273 139.016 128.273H178.438C180.857 128.273 182.818 130.225 182.818 132.633V171.873C182.818 174.281 180.857 176.233 178.438 176.233H152.894L146.352 181.61C145.503 182.308 144.221 181.707 144.221 180.611V176.233H139.016C136.597 176.233 134.636 174.281 134.636 171.873V132.633ZM144.217 136.197H165.275C169.823 136.197 173.51 139.867 173.51 144.394C173.51 148.021 171.142 151.099 167.861 152.178C171.697 152.876 174.605 156.22 174.605 160.241C174.605 164.768 170.918 168.437 166.37 168.437H144.218V152.59L144.217 136.197ZM161.73 143.573H151.882V148.491H161.73C163.095 148.491 164.201 147.39 164.201 146.032C164.201 144.674 163.095 143.573 161.73 143.573ZM151.882 154.502H162.551C164.067 154.502 165.296 155.725 165.296 157.235C165.296 158.744 164.067 159.967 162.551 159.967H151.882V154.502Z" fill="#727272"/>
</g>
<g id="Group 482370">
<path id="Rectangle 3464191" d="M8.27273 1H1V8.27273" stroke="#2C2C2C"/>
<path id="Rectangle 3464198" d="M8.27273 201H1V193.727" stroke="#2C2C2C"/>
<path id="Rectangle 3464199" d="M193.727 1H201V8.27273" stroke="#2C2C2C"/>
<path id="Rectangle 3464200" d="M193.727 201H201V193.727" stroke="#2C2C2C"/>
</g>
</g>
</g>
</g>
</g>
<path id="Rectangle 3464223" d="M-64.3263 391.222C-64.6136 390.793 -64.8201 390.305 -64.9239 389.781L-64.4334 389.684C-64.477 389.463 -64.5 389.234 -64.5 389V388.003H-65V386.01H-64.5V384.017H-65V382.024H-64.5V380.031H-65V378.038H-64.5V376.045H-65V374.052H-64.5V372.059H-65V370.065H-64.5V368.072H-65V366.079H-64.5V364.086H-65V362.093H-64.5V360.1H-65V358.107H-64.5V356.114H-65V354.121H-64.5V352.128H-65V350.134H-64.5V348.141H-65V346.148H-64.5V344.155H-65V342.162H-64.5V340.169H-65V338.176H-64.5V336.183H-65V334.19H-64.5V332.196H-65V330.203H-64.5V328.21H-65V326.217H-64.5V324.224H-65V322.231H-64.5V320.238H-65V318.245H-64.5V316.252H-65V314.259H-64.5V312.265H-65V310.272H-64.5V308.279H-65V306.286H-64.5V304.293H-65V302.3H-64.5V300.307H-65V298.314H-64.5V296.321H-65V294.328H-64.5V292.334H-65V290.341H-64.5V288.348H-65V286.355H-64.5V284.362H-65V282.369H-64.5V280.376H-65V278.383H-64.5V276.39H-65V274.396H-64.5V272.403H-65V270.41H-64.5V268.417H-65V266.424H-64.5V264.431H-65V262.438H-64.5V260.445H-65V258.452H-64.5V256.459H-65V254.465H-64.5V252.472H-65V250.479H-64.5V248.486H-65V246.493H-64.5V244.5H-65V242.507H-64.5V240.514H-65V238.521H-64.5V236.528H-65V234.534H-64.5V232.541H-65V230.548H-64.5V228.555H-65V226.562H-64.5V224.569H-65V222.576H-64.5V220.583H-65V218.59H-64.5V216.596H-65V214.603H-64.5V212.61H-65V210.617H-64.5V208.624H-65V206.631H-64.5V204.638H-65V202.645H-64.5V200.652H-65V198.659H-64.5V196.665H-65V194.672H-64.5V192.679H-65V190.686H-64.5V188.693H-65V186.7H-64.5V184.707H-65V182.714H-64.5V180.721H-65V178.728H-64.5V176.734H-65V174.741H-64.5V172.748H-65V170.755H-64.5V168.762H-65V166.769H-64.5V164.776H-65V162.783H-64.5V160.79H-65V158.797H-64.5V156.803H-65V154.81H-64.5V152.817H-65V150.824H-64.5V148.831H-65V146.838H-64.5V144.845H-65V142.852H-64.5V140.859H-65V138.865H-64.5V136.872H-65V134.879H-64.5V132.886H-65V130.893H-64.5V128.9H-65V126.907H-64.5V124.914H-65V122.921H-64.5V120.928H-65V118.934H-64.5V116.941H-65V114.948H-64.5V112.955H-65V110.962H-64.5V108.969H-65V106.976H-64.5V104.983H-65V102.99H-64.5V100.997H-65V99.0034H-64.5V97.0103H-65V95.0172H-64.5V93.0241H-65V91.031H-64.5V89.0379H-65V87.0448H-64.5V85.0517H-65V83.0586H-64.5V81.0655H-65V79.0724H-64.5V77.0793H-65V75.0862H-64.5V73.0931H-65V71.1H-64.5V69.1069H-65V67.1138H-64.5V65.1207H-65V63.1275H-64.5V61.1345H-65V59.1413H-64.5V57.1482H-65V55.1551H-64.5V53.162H-65V51.1689H-64.5V49.1758H-65V47.1827H-64.5V45.1896H-65V43.1965H-64.5V41.2034H-65V39.2103H-64.5V37.2172H-65V35.2241H-64.5V33.231H-65V31.2379H-64.5V29.2448H-65V27.2517H-64.5V25.2586H-65V23.2655H-64.5V21.2724H-65V19.2793H-64.5V17.2862H-65V15.2931H-64.5V13.3H-65V11.3069H-64.5V9.31377H-65V7.32066H-64.5V5.32756H-65V3.33446H-64.5V1.34135H-65V-0.651749H-64.5V-2.64485H-65V-4.63795H-64.5V-6.63107H-65V-8.62416H-64.5V-10.6173H-65V-12.6104H-64.5V-14.6035H-65V-16.5966H-64.5V-18.5897H-65V-20.5828H-64.5V-22.5759H-65V-24.569H-64.5V-26.5621H-65V-28.5552H-64.5V-30.5483H-65V-32.5414H-64.5V-34.5345H-65V-36.5276H-64.5V-38.5207H-65V-40.5138H-64.5V-42.5069H-65V-44.5H-64.5V-46.4931H-65V-48.4862H-64.5V-50.4793H-65V-52.4724H-64.5V-54.4655H-65V-56.4586H-64.5V-58.4517H-65V-60.4448H-64.5V-62.438H-65V-64.4311H-64.5V-66.4242H-65V-68.4173H-64.5V-70.4104H-65V-72.4035H-64.5V-74.3966H-65V-76.3897H-64.5V-78.3828H-65V-80.3759H-64.5V-82.369H-65V-84.3621H-64.5V-86.3552H-65V-88.3483H-64.5V-90.3414H-65V-92.3345H-64.5V-94.3276H-65V-96.3207H-64.5V-98.3138H-65V-100.307H-64.5V-102.3H-65V-104.293H-64.5V-106.286H-65V-108.279H-64.5V-110.272H-65V-112.266H-64.5V-114.259H-65V-116.252H-64.5V-118.245H-65V-120.238H-64.5V-122.231H-65V-124.224H-64.5V-126.217H-65V-128.21H-64.5V-130.203H-65V-132.197H-64.5V-134.19H-65V-136.183H-64.5V-138.176H-65V-140.169H-64.5V-142.162H-65V-144.155H-64.5V-146.148H-65V-148.141H-64.5V-150.134H-65V-152.128H-64.5V-154.121H-65V-156.114H-64.5V-158.107H-65V-160.1H-64.5V-162.093H-65V-164.086H-64.5V-166.079H-65V-168.072H-64.5V-170.066H-65V-172.059H-64.5V-174.052H-65V-176.045H-64.5V-178.038H-65V-180.031H-64.5V-182.024H-65V-184.017H-64.5V-186.01H-65V-188.003H-64.5V-188.5H-64V-189H-62V-188.5H-60V-189H-58V-188.5H-56V-189H-54V-188.5H-52V-189H-50V-188.5H-48V-189H-46V-188.5H-44V-189H-42V-188.5H-40V-189H-38V-188.5H-36V-189H-34V-188.5H-32V-189H-30V-188.5H-28V-189H-26V-188.5H-24V-189H-22V-188.5H-20V-189H-18V-188.5H-16V-189H-14V-188.5H-12V-189H-10V-188.5H-7.99999V-189H-6.00002V-188.5H-4V-189H-2.00002V-188.5H0V-189H2.00003V-188.5H4V-189H6.00002V-188.5H8V-189H10V-188.5H12V-189H14V-188.5H16V-189H18V-188.5H20V-189H22V-188.5H24V-189H26V-188.5H28V-189H30V-188.5H32V-189H34V-188.5H36V-189H38V-188.5H40V-189H42V-188.5H44V-189H46V-188.5H48V-189H50V-188.5H52V-189H54V-188.5H56V-189H58V-188.5H60V-189H62V-188.5H64V-189H66V-188.5H68V-189H70V-188.5H72V-189H74V-188.5H76V-189H78V-188.5H80V-189H82V-188.5H84V-189H86V-188.5H88V-189H90V-188.5H92V-189H94V-188.5H96V-189H98V-188.5H100V-189H102V-188.5H104V-189H106V-188.5H108V-189H110V-188.5H112V-189H114V-188.5H116V-189H118V-188.5H120V-189H122V-188.5H124V-189H126V-188.5H128V-189H130V-188.5H132V-189H134V-188.5H136V-189H138V-188.5H140V-189H142V-188.5H144V-189H146V-188.5H148V-189H150V-188.5H152V-189H154V-188.5H156V-189H158V-188.5H160V-189H162V-188.5H164V-189H166V-188.5H168V-189H170V-188.5H172V-189H174V-188.5H176V-189H178V-188.5H180V-189H182V-188.5H184V-189H186V-188.5H188V-189H190V-188.5H192V-189H194V-188.5H196V-189H198V-188.5H200V-189H202V-188.5H204V-189H206V-188.5H208V-189H210V-188.5H212V-189H214V-188.5H216V-189H218V-188.5H220V-189H222V-188.5H224V-189H226V-188.5H228V-189H230V-188.5H232V-189H234V-188.5H236V-189H238V-188.5H240V-189H242V-188.5H244V-189H246V-188.5H248V-189H250V-188.5H252V-189H254V-188.5H256V-189H258V-188.5H260V-189H262V-188.5H264V-189H266V-188.5H268V-189H270V-188.5H272V-189H274V-188.5H276V-189H278V-188.5H280V-189H282V-188.5H284V-189H286V-188.5H288V-189H290V-188.5H292V-189H294V-188.5H296V-189H298V-188.5H300V-189H302V-188.5H304V-189H306V-188.5H308V-189H310V-188.5H312V-189H314V-188.5H316V-189H318V-188.5H320V-189H322V-188.5H324V-189H326V-188.5H328V-189H330V-188.5H332V-189H334V-188.5H336V-189H338V-188.5H340V-189H342V-188.5H344V-189H346V-188.5H348V-189H350V-188.5H352V-189H354V-188.5H356V-189H358V-188.5H360V-189H362V-188.5H364V-189H366V-188.5H368V-189H370V-188.5H372V-189H374V-188.5H376V-189H378V-188.5H380V-189H382V-188.5H384V-189H386V-188.5H388V-189H390V-188.5H392V-189H394V-188.5H396V-189H398V-188.5H400V-189H402V-188.5H404V-189H406V-188.5H408V-189H410V-188.5H412V-189H414V-188.5H416V-189H418V-188.5H420V-189H422V-188.5H424V-189H426V-188.5H428V-189H430V-188.5H432V-189H434V-188.5H436V-189H438V-188.5H440V-189H442V-188.5H444V-189H446V-188.5H448V-189H450V-188.5H452V-189H454V-188.5H456V-189H458V-188.5H460V-189H462V-188.5H464V-189H466V-188.5H468V-189H470V-188.5H472V-189H474V-188.5H476V-189H478V-188.5H480V-189H482V-188.5H484V-189H486V-188.5H488V-189H490V-188.5H492V-189H494V-188.5H496V-189H498V-188.5H500V-189H502V-188.5H504V-189H506V-188.5H508V-189H510V-188.5H512V-189H514V-188.5H516V-189H518V-188.5H520V-189H522V-188.5H524V-189H526V-188.5H528V-189H530V-188.5H532V-189H534V-188.5H536V-189H538V-188.5H540V-189H542V-188.5H544V-189H546V-188.5H548V-189H550V-188.5H552V-189H554V-188.5H556V-189H558V-188.5H560V-189H562V-188.5H564V-189H566V-188.5H568V-189H570V-188.5H572V-189H574V-188.5H576V-189H578V-188.5H580V-189H582V-188.5H584V-189H586V-188.5H588V-189H590V-188.5H592V-189H594V-188.5H596V-189H598V-188.5H600V-189H602V-188.5H604V-189H606V-188.5H608V-189H610V-188.5H612V-189H614V-188.5H616V-189H618V-188.5H620V-189H622V-188.5H624V-189H626V-188.5H628V-189H630V-188.5H632V-189H634V-188.5H636V-189H638V-188.5H640V-189H642V-188.5H644V-189H646V-188.5H648V-189H650V-188.5H652V-189H654V-188.5H656V-189H658V-188.5H660V-189H662V-188.5H664V-189H666V-188.5H668V-189H670V-188.5H672V-189H674V-188.5H676V-189H678V-188.5H680V-189H682V-188.5H684V-189H686V-188.5H688V-189H690V-188.5H692V-189H694V-188.5H696V-189H698V-188.5H700V-189H702V-188.5H704V-189H706V-188.5H708V-189H710V-188.5H712V-189H714V-188.5H716V-189H718V-188.5H720V-189H722V-188.5H724V-189H726V-188.5H728V-189H730V-188.5H732V-189H734V-188.5H736V-189H738V-188.5H740V-189H742V-188.5H744V-189H746V-188.5H748V-189H750V-188.5H752V-189H754V-188.5H756V-189H758V-188.5H760V-189H762V-188.5H764V-189H766V-188.5H768V-189H770V-188.5H772V-189H774V-188.5H776V-189H778V-188.5H780V-189H782V-188.5H784V-189H786V-188.5H788V-189H790V-188.5H792V-189H794V-188.5H796V-189H798V-188.5H800V-189H802V-188.5H804V-189H806V-188.5H808V-189H810V-188.5H812V-189H814V-188.5H816V-189H818V-188.5H820V-189H822V-188.5H823C823.234 -188.5 823.463 -188.477 823.684 -188.433L823.781 -188.924C824.305 -188.82 824.793 -188.614 825.222 -188.326L824.944 -187.911C825.326 -187.655 825.655 -187.326 825.911 -186.944L826.326 -187.222C826.614 -186.793 826.82 -186.305 826.924 -185.781L826.433 -185.684C826.477 -185.463 826.5 -185.234 826.5 -185V-184.002H827V-182.008H826.5V-180.015H827V-178.022H826.5V-176.029H827V-174.036H826.5V-172.043H827V-170.05H826.5V-168.057H827V-166.064H826.5V-164.071H827V-162.078H826.5V-160.085H827V-158.092H826.5V-156.099H827V-154.106H826.5V-152.113H827V-150.12H826.5V-148.127H827V-146.134H826.5V-144.141H827V-142.148H826.5V-140.155H827V-138.162H826.5V-136.169H827V-134.175H826.5V-132.182H827V-130.189H826.5V-128.196H827V-126.203H826.5V-124.21H827V-122.217H826.5V-120.224H827V-118.231H826.5V-116.238H827V-114.245H826.5V-112.252H827V-110.259H826.5V-108.266H827V-106.273H826.5V-104.28H827V-102.287H826.5V-100.294H827V-98.3007H826.5V-96.3077H827V-94.3146H826.5V-92.3216H827V-90.3285H826.5V-88.3355H827V-86.3424H826.5V-84.3494H827V-82.3564H826.5V-80.3633H827V-78.3703H826.5V-76.3772H827V-74.3842H826.5V-72.3911H827V-70.3981H826.5V-68.4051H827V-66.412H826.5V-64.419H827V-62.4259H826.5V-60.4329H827V-58.4398H826.5V-56.4468H827V-54.4538H826.5V-52.4607H827V-50.4677H826.5V-48.4746H827V-46.4816H826.5V-44.4885H827V-42.4955H826.5V-40.5025H827V-38.5094H826.5V-36.5164H827V-34.5233H826.5V-32.5303H827V-30.5373H826.5V-28.5442H827V-26.5512H826.5V-24.5581H827V-22.5651H826.5V-20.572H827V-18.579H826.5V-16.586H827V-14.5929H826.5V-12.5999H827V-10.6068H826.5V-8.61378H827V-6.62077H826.5V-4.62772H827V-2.63467H826.5V-0.641617H827V1.35143H826.5V3.34447H827V5.33748H826.5V7.33054H827V9.32358H826.5V11.3166H827V13.3097H826.5V15.3027H827V17.2957H826.5V19.2888H827V21.2818H826.5V23.2749H827V25.2679H826.5V27.2609H827V29.254H826.5V31.247H827V33.2401H826.5V35.2331H827V37.2262H826.5V39.2192H827V41.2122H826.5V43.2053H827V45.1983H826.5V47.1914H827V49.1844H826.5V51.1775H827V53.1705H826.5V55.1635H827V57.1566H826.5V59.1496H827V61.1427H826.5V63.1357H827V65.1288H826.5V67.1218H827V69.1148H826.5V71.1079H827V73.1009H826.5V75.094H827V77.087H826.5V79.08H827V81.0731H826.5V83.0662H827V85.0592H826.5V87.0522H827V89.0453H826.5V91.0383H827V93.0314H826.5V95.0244H827V97.0174H826.5V99.0105H827V101.004H826.5V102.997H827V104.99H826.5V106.983H827V108.976H826.5V110.969H827V112.962H826.5V114.955H827V116.948H826.5V118.941H827V120.934H826.5V122.927H827V124.92H826.5V126.913H827V128.906H826.5V130.899H827V132.892H826.5V134.885H827V136.878H826.5V138.871H827V140.864H826.5V142.857H827V144.851H826.5V146.844H827V148.837H826.5V150.83H827V152.823H826.5V154.816H827V156.809H826.5V158.802H827V160.795H826.5V162.788H827V164.781H826.5V166.774H827V168.767H826.5V170.76H827V172.753H826.5V174.746H827V176.739H826.5V178.733H827V180.726H826.5V182.719H827V184.712H826.5V186.705H827V188.698H826.5V190.691H827V192.684H826.5V194.677H827V196.67H826.5V198.663H827V200.656H826.5V202.649H827V204.642H826.5V206.635H827V208.628H826.5V210.621H827V212.614H826.5V214.608H827V216.601H826.5V218.594H827V220.587H826.5V222.58H827V224.573H826.5V226.566H827V228.559H826.5V230.552H827V232.545H826.5V234.538H827V236.531H826.5V238.524H827V240.517H826.5V242.51H827V244.503H826.5V246.496H827V248.49H826.5V250.483H827V252.476H826.5V254.469H827V256.462H826.5V258.455H827V260.448H826.5V262.441H827V264.434H826.5V266.427H827V268.42H826.5V270.413H827V272.406H826.5V274.399H827V276.392H826.5V278.385H827V280.378H826.5V282.371H827V284.365H826.5V286.358H827V288.351H826.5V290.344H827V292.337H826.5V294.33H827V296.323H826.5V298.316H827V300.309H826.5V302.302H827V304.295H826.5V306.288H827V308.281H826.5V310.274H827V312.267H826.5V314.26H827V316.253H826.5V318.247H827V320.24H826.5V322.233H827V324.226H826.5V326.219H827V328.212H826.5V330.205H827V332.198H826.5V334.191H827V336.184H826.5V338.177H827V340.17H826.5V342.163H827V344.156H826.5V346.149H827V348.142H826.5V350.135H827V352.128H826.5V354.122H827V356.115H826.5V358.108H827V360.101H826.5V362.094H827V364.087H826.5V366.08H827V368.073H826.5V370.066H827V372.059H826.5V374.052H827V376.045H826.5V378.038H827V380.031H826.5V382.024H827V384.017H826.5V386.01H827V388.003H826.5V389C826.5 389.234 826.477 389.463 826.433 389.684L826.924 389.781C826.82 390.305 826.614 390.793 826.326 391.222L825.911 390.944C825.655 391.326 825.326 391.655 824.944 391.911L825.222 392.326C824.793 392.614 824.305 392.82 823.781 392.924L823.684 392.433C823.463 392.477 823.234 392.5 823 392.5H822V393H820V392.5H818V393H816V392.5H814V393H812V392.5H810V393H808V392.5H806V393H804V392.5H802V393H800V392.5H798V393H796V392.5H794V393H792V392.5H790V393H788V392.5H786V393H784V392.5H782V393H780V392.5H778V393H776V392.5H774V393H772V392.5H770V393H768V392.5H766V393H764V392.5H762V393H760V392.5H758V393H756V392.5H754V393H752V392.5H750V393H748V392.5H746V393H744V392.5H742V393H740V392.5H738V393H736V392.5H734V393H732V392.5H730V393H728V392.5H726V393H724V392.5H722V393H720V392.5H718V393H716V392.5H714V393H712V392.5H710V393H708V392.5H706V393H704V392.5H702V393H700V392.5H698V393H696V392.5H694V393H692V392.5H690V393H688V392.5H686V393H684V392.5H682V393H680V392.5H678V393H676V392.5H674V393H672V392.5H670V393H668V392.5H666V393H664V392.5H662V393H660V392.5H658V393H656V392.5H654V393H652V392.5H650V393H648V392.5H646V393H644V392.5H642V393H640V392.5H638V393H636V392.5H634V393H632V392.5H630V393H628V392.5H626V393H624V392.5H622V393H620V392.5H618V393H616V392.5H614V393H612V392.5H610V393H608V392.5H606V393H604V392.5H602V393H600V392.5H598V393H596V392.5H594V393H592V392.5H590V393H588V392.5H586V393H584V392.5H582V393H580V392.5H578V393H576V392.5H574V393H572V392.5H570V393H568V392.5H566V393H564V392.5H562V393H560V392.5H558V393H556V392.5H554V393H552V392.5H550V393H548V392.5H546V393H544V392.5H542V393H540V392.5H538V393H536V392.5H534V393H532V392.5H530V393H528V392.5H526V393H524V392.5H522V393H520V392.5H518V393H516V392.5H514V393H512V392.5H510V393H508V392.5H506V393H504V392.5H502V393H500V392.5H498V393H496V392.5H494V393H492V392.5H490V393H488V392.5H486V393H484V392.5H482V393H480V392.5H478V393H476V392.5H474V393H472V392.5H470V393H468V392.5H466V393H464V392.5H462V393H460V392.5H458V393H456V392.5H454V393H452V392.5H450V393H448V392.5H446V393H444V392.5H442V393H440V392.5H438V393H436V392.5H434V393H432V392.5H430V393H428V392.5H426V393H424V392.5H422V393H420V392.5H418V393H416V392.5H414V393H412V392.5H410V393H408V392.5H406V393H404V392.5H402V393H400V392.5H398V393H396V392.5H394V393H392V392.5H390V393H388V392.5H386V393H384V392.5H382V393H380V392.5H378V393H376V392.5H374V393H372V392.5H370V393H368V392.5H366V393H364V392.5H362V393H360V392.5H358V393H356V392.5H354V393H352V392.5H350V393H348V392.5H346V393H344V392.5H342V393H340V392.5H338V393H336V392.5H334V393H332V392.5H330V393H328V392.5H326V393H324V392.5H322V393H320V392.5H318V393H316V392.5H314V393H312V392.5H310V393H308V392.5H306V393H304V392.5H302V393H300V392.5H298V393H296V392.5H294V393H292V392.5H290V393H288V392.5H286V393H284V392.5H282V393H280V392.5H278V393H276V392.5H274V393H272V392.5H270V393H268V392.5H266V393H264V392.5H262V393H260V392.5H258V393H256V392.5H254V393H252V392.5H250V393H248V392.5H246V393H244V392.5H242V393H240V392.5H238V393H236V392.5H234V393H232V392.5H230V393H228V392.5H226V393H224V392.5H222V393H220V392.5H218V393H216V392.5H214V393H212V392.5H210V393H208V392.5H206V393H204V392.5H202V393H200V392.5H198V393H196V392.5H194V393H192V392.5H190V393H188V392.5H186V393H184V392.5H182V393H180V392.5H178V393H176V392.5H174V393H172V392.5H170V393H168V392.5H166V393H164V392.5H162V393H160V392.5H158V393H156V392.5H154V393H152V392.5H150V393H148V392.5H146V393H144V392.5H142V393H140V392.5H138V393H136V392.5H134V393H132V392.5H130V393H128V392.5H126V393H124V392.5H122V393H120V392.5H118V393H116V392.5H114V393H112V392.5H110V393H108V392.5H106V393H104V392.5H102V393H100V392.5H98V393H96V392.5H94V393H92V392.5H90V393H88V392.5H86V393H84V392.5H82V393H80V392.5H78V393H76V392.5H74V393H72V392.5H70V393H68V392.5H66V393H64V392.5H62V393H60V392.5H58V393H56V392.5H54V393H52V392.5H50V393H48V392.5H46V393H44V392.5H42V393H40V392.5H38V393H36V392.5H34V393H32V392.5H30V393H28V392.5H26V393H24V392.5H22V393H20V392.5H18V393H16V392.5H14V393H12V392.5H9.99999V393H7.99999V392.5H5.99999V393H3.99999V392.5H1.99999V393H-7.62939e-06V392.5H-2V393H-4V392.5H-6.00001V393H-8.00001V392.5H-10V393H-12V392.5H-14V393H-16V392.5H-18V393H-20V392.5H-22V393H-24V392.5H-26V393H-28V392.5H-30V393H-32V392.5H-34V393H-36V392.5H-38V393H-40V392.5H-42V393H-44V392.5H-46V393H-48V392.5H-50V393H-52V392.5H-54V393H-56V392.5H-58V393H-60V392.5H-61C-61.2344 392.5 -61.4629 392.477 -61.6836 392.433L-61.7807 392.924C-62.3054 392.82 -62.7933 392.614 -63.2225 392.326L-62.9443 391.911C-63.3262 391.655 -63.6551 391.326 -63.9108 390.944L-64.3263 391.222Z" stroke="#5F00E5" stroke-dasharray="2 2"/>
</g>
</g>
</g>
</g>
<rect x="-104.5" y="-1094.5" width="971" height="1803" rx="15.5" stroke="#2C2C2C"/>
</g>
</g>
<defs>
<clipPath id="clip0_981_203">
<rect x="-105" y="-1095" width="972" height="1804" rx="16" fill="white"/>
</clipPath>
</defs>
</svg>
