<svg width="135" height="30" viewBox="0 0 135 30" fill="none" xmlns="http://www.w3.org/2000/svg">
<g id="easypark-logo 1" clip-path="url(#clip0_1617_2763)">
<g id="Group">
<path id="Vector" d="M109.285 24.8805C108.335 24.8805 107.646 25.6221 107.646 26.9499C107.646 28.2896 108.323 29.0312 109.309 29.0312C110.187 29.0312 110.745 28.493 110.769 27.6556H109.415V26.8183H111.802V27.5241C111.802 29.0432 110.757 29.9882 109.309 29.9882C107.694 29.9882 106.59 28.8279 106.59 26.9619C106.59 25.0599 107.741 23.9236 109.273 23.9236C110.567 23.9236 111.564 24.737 111.754 25.8973H110.674C110.484 25.2633 109.997 24.8805 109.285 24.8805Z" fill="#727272"/>
<path id="Vector_2" d="M112.966 24.0073H115.162C116.504 24.0073 117.228 24.7729 117.228 25.8973C117.228 26.6987 116.86 27.2968 116.171 27.5719L117.442 29.9164H116.255L115.103 27.7513H114.023V29.9164H112.954V24.0073H112.966ZM115.008 26.8662C115.792 26.8662 116.148 26.5312 116.148 25.8973C116.148 25.2633 115.792 24.9045 114.996 24.9045H114.023V26.8662H115.008Z" fill="#727272"/>
<path id="Vector_3" d="M120.825 30.0001C119.281 30.0001 118.13 28.8757 118.13 26.9619C118.13 25.048 119.281 23.9236 120.825 23.9236C122.368 23.9236 123.52 25.048 123.52 26.9619C123.52 28.8757 122.368 30.0001 120.825 30.0001ZM120.825 24.8805C119.875 24.8805 119.198 25.6102 119.198 26.9619C119.198 28.3135 119.875 29.0432 120.825 29.0432C121.787 29.0432 122.451 28.3135 122.451 26.9619C122.451 25.6102 121.787 24.8805 120.825 24.8805Z" fill="#727272"/>
<path id="Vector_4" d="M129.385 24.0073V27.871C129.385 29.1389 128.435 30.0121 126.999 30.0121C125.562 30.0121 124.612 29.1389 124.612 27.871V24.0073H125.681V27.7753C125.681 28.5169 126.191 29.0432 126.999 29.0432C127.806 29.0432 128.316 28.5169 128.316 27.7753V24.0073H129.385Z" fill="#727272"/>
<path id="Vector_5" d="M130.726 24.0073H132.922C134.276 24.0073 134.988 24.8327 134.988 25.969C134.988 27.1054 134.264 27.9308 132.91 27.9308H131.783V29.9284H130.714V24.0073H130.726ZM132.768 27.0336C133.563 27.0336 133.908 26.5911 133.908 25.9571C133.908 25.3231 133.552 24.8925 132.756 24.8925H131.783V27.0336H132.768Z" fill="#727272"/>
</g>
<g id="LOGO_RGB_00000115478934443841048170000013850505563379914883_">
<path id="Vector_6" d="M7.69326 19.378C5.17633 19.378 3.32425 18.9115 2.01829 17.9545C1.09225 17.2727 0 15.9928 0 13.7201V5.64593C0 3.37321 1.10412 2.0933 2.01829 1.41148C3.32425 0.466507 5.17633 0 7.69326 0C10.2102 0 12.0623 0.466507 13.3682 1.42344C14.2943 2.10526 15.3865 3.38517 15.3865 5.65789C15.3865 8.58852 13.57 10.7297 10.5307 11.3876L3.20552 12.9426V13.7201C3.20552 14.5096 3.20552 16.1364 7.69326 16.1364C9.33163 16.1364 10.7801 15.8254 11.9435 15.5742L12.1691 15.5263C13.0358 15.3469 13.8906 15.8971 14.0687 16.7703C14.2586 17.6435 13.7006 18.5048 12.834 18.6842L12.6084 18.7321C11.3737 19.0072 9.67593 19.378 7.69326 19.378ZM7.69326 3.22967C3.20552 3.22967 3.20552 4.86842 3.20552 5.64593V9.64115L9.86589 8.2177C11.4212 7.88277 12.181 7.04545 12.181 5.64593C12.181 4.86842 12.181 3.22967 7.69326 3.22967ZM23.7209 19.378C21.2039 19.378 19.3519 18.9115 18.0459 17.9545C17.1199 17.2727 16.0276 15.9928 16.0276 13.7201C16.0276 10.7895 17.8441 8.64833 20.8834 7.99043L28.2086 6.42345V5.64593C28.2086 4.85646 28.2086 3.22967 23.7209 3.22967C22.0825 3.22967 20.6341 3.54067 19.4706 3.79187L19.245 3.83971C18.3783 4.0311 17.5235 3.4689 17.3454 2.59569C17.1555 1.72249 17.7135 0.861244 18.5802 0.681818L18.8057 0.633971C20.0405 0.370813 21.7382 0 23.7209 0C26.2378 0 28.0899 0.466507 29.3958 1.42344C30.3219 2.10526 31.4141 3.38517 31.4141 5.65789V13.7321C31.4141 16.0048 30.31 17.2847 29.3958 17.9665C28.0899 18.9115 26.2378 19.378 23.7209 19.378ZM28.2086 9.73684L21.5482 11.1603C19.993 11.4952 19.2331 12.3325 19.2331 13.7321C19.2331 14.5215 19.2331 16.1483 23.7209 16.1483C28.2086 16.1483 28.2086 14.5096 28.2086 13.7321V9.73684ZM46.0527 17.9545C46.9787 17.2727 48.071 15.9928 48.071 13.7201C48.071 9.73684 44.4855 8.45694 41.3512 7.78708C41.1019 7.72727 40.8407 7.67943 40.5795 7.63158C37.7777 7.06938 37.1722 6.72249 37.1722 5.65789C37.1722 4.86842 37.1722 3.24163 41.6599 3.24163C42.859 3.24163 43.7257 3.28947 44.8536 3.52871C45.7203 3.7201 46.5751 3.15789 46.7531 2.28469C46.9431 1.41148 46.3851 0.550239 45.5184 0.370813C44.1294 0.0717703 43.0134 0.0119617 41.6599 0.0119617C39.143 0.0119617 37.2909 0.478469 35.985 1.43541C35.0589 2.11722 33.9667 3.39713 33.9667 5.66986C33.9667 9.61722 37.564 10.3349 39.9503 10.8134C40.1996 10.8612 40.4371 10.9091 40.6864 10.9689C44.8773 11.8421 44.8773 13.0144 44.8773 13.7201C44.8773 14.5096 44.8773 16.1364 40.3896 16.1364C38.7512 16.1364 37.3028 15.8254 36.1393 15.5742L35.9137 15.5263C35.0471 15.3469 34.1922 15.8971 34.0142 16.7703C33.8242 17.6435 34.3822 18.5048 35.2489 18.6842L35.4745 18.7321C36.7092 18.9952 38.4069 19.366 40.3896 19.366C42.8947 19.378 44.7586 18.9115 46.0527 17.9545ZM63.1369 0C62.2465 0 61.5342 0.717703 61.5342 1.61483V9.64115L54.8738 8.2177C53.3185 7.88277 52.5587 7.04545 52.5587 5.64593V1.61483C52.5587 0.717703 51.8464 0 50.9559 0C50.0655 0 49.3532 0.717703 49.3532 1.61483V5.64593C49.3532 8.57656 51.1696 10.7177 54.209 11.3756L61.5342 12.9426V13.7201C61.5342 14.5096 61.5342 16.1364 57.0464 16.1364C55.6336 16.1364 54.387 15.8493 53.271 15.5981C53.0217 15.5383 52.7843 15.4904 52.5706 15.4426C51.7039 15.2632 50.8491 15.8134 50.671 16.6866C50.4811 17.5598 51.0391 18.4211 51.9057 18.6005C52.1194 18.6483 52.3331 18.6962 52.5706 18.744C53.7816 19.0191 55.2775 19.366 57.0464 19.366C59.5634 19.366 61.4154 18.8995 62.7214 17.9426C63.6474 17.2608 64.7397 15.9809 64.7397 13.7081V1.61483C64.7397 0.717703 64.0274 0 63.1369 0Z" fill="#727272"/>
<path id="Vector_7" d="M69.5481 19.378C68.6577 19.378 67.9453 18.6603 67.9453 17.7632V5.64593C67.9453 3.3732 69.0494 2.0933 69.9636 1.41148C71.2696 0.454544 73.1216 -0.0119629 75.6386 -0.0119629C78.1555 -0.0119629 80.0076 0.454544 81.3135 1.41148C82.2396 2.0933 83.3318 3.3732 83.3318 5.64593C83.3318 8.57655 81.5154 10.7177 78.476 11.3756L71.1508 12.9426V17.7632C71.1508 18.6483 70.4385 19.378 69.5481 19.378ZM75.6386 3.22966C71.1508 3.22966 71.1508 4.86842 71.1508 5.64593V9.64115L77.8112 8.2177C79.3665 7.88277 80.1263 7.04545 80.1263 5.64593C80.1263 4.86842 80.1263 3.22966 75.6386 3.22966ZM91.0251 19.378C88.5082 19.378 86.6561 18.9115 85.3501 17.9545C84.4241 17.2727 83.3318 15.9928 83.3318 13.7201C83.3318 10.7895 85.1483 8.64832 88.1876 7.99043L95.5128 6.42344V5.64593C95.5128 4.85646 95.5128 3.22966 91.0251 3.22966C89.3867 3.22966 87.9383 3.54067 86.7748 3.79187L86.5492 3.83971C85.6825 4.01914 84.8277 3.4689 84.6496 2.59569C84.4716 1.72249 85.0177 0.861243 85.8844 0.681817L86.1099 0.63397C87.3447 0.370812 89.0424 -1.16733e-06 91.0251 -1.16733e-06C93.542 -1.16733e-06 95.3941 0.466506 96.7 1.42344C97.6261 2.10526 98.7183 3.38517 98.7183 5.65789V13.7321C98.7183 16.0048 97.6142 17.2847 96.7 17.9665C95.3941 18.9115 93.542 19.378 91.0251 19.378ZM95.5128 9.73684L88.8524 11.1603C87.2972 11.4952 86.5373 12.3325 86.5373 13.7321C86.5373 14.5215 86.5373 16.1483 91.0251 16.1483C95.5128 16.1483 95.5128 14.5096 95.5128 13.7321V9.73684ZM113.155 11.1962C115.767 10.3828 117.31 8.36124 117.31 5.65789C117.31 3.38517 116.206 2.10526 115.292 1.42344C113.986 0.466506 112.134 -1.16733e-06 109.617 -1.16733e-06C107.1 -1.16733e-06 105.248 0.466506 103.942 1.42344C103.016 2.10526 101.924 3.38517 101.924 5.65789V17.7632C101.924 18.6603 102.636 19.378 103.527 19.378C104.417 19.378 105.129 18.6603 105.129 17.7632V12.9426L109.878 11.9258L113.677 18.5646C113.974 19.0789 114.509 19.378 115.066 19.378C115.34 19.378 115.613 19.3062 115.862 19.1627C116.634 18.7201 116.895 17.7273 116.444 16.9617L113.155 11.1962ZM105.129 5.64593C105.129 4.85646 105.129 3.22966 109.617 3.22966C114.105 3.22966 114.105 4.86842 114.105 5.64593C114.105 7.03349 113.345 7.88277 111.79 8.2177L105.129 9.64115V5.64593ZM129.658 8.67225C131.533 6.69856 133.184 4.55742 134.406 2.41627C134.846 1.63876 134.585 0.657894 133.825 0.21531C133.053 -0.227274 132.08 0.035884 131.64 0.801434C129.669 4.24641 126.476 7.73923 123.092 10.2392V1.61483C123.092 0.717702 122.38 -1.16733e-06 121.489 -1.16733e-06C120.599 -1.16733e-06 119.887 0.717702 119.887 1.61483V17.7632C119.887 18.6603 120.599 19.378 121.489 19.378C122.38 19.378 123.092 18.6603 123.092 17.7632V14.1507C124.517 13.2536 125.93 12.177 127.295 10.9809L131.64 18.5766C131.937 19.0909 132.471 19.39 133.029 19.39C133.302 19.39 133.575 19.3182 133.825 19.1746C134.596 18.7321 134.858 17.7392 134.406 16.9737L129.658 8.67225Z" fill="#727272"/>
</g>
</g>
<defs>
<clipPath id="clip0_1617_2763">
<rect width="135" height="30" fill="white"/>
</clipPath>
</defs>
</svg>
