<svg width="232" height="81" viewBox="0 0 232 81" fill="none" xmlns="http://www.w3.org/2000/svg">
<g id="Logo">
<g id="Container">
<path id="Vector" d="M74.3476 44.4532C75.4901 43.5759 75.6658 44.073 76.6618 45.0673C77.1598 45.5644 78.4488 46.4125 77.6285 47.1436C73.9082 50.3311 68.2837 49.9217 65.0906 46.2078C63.6259 44.5117 62.8643 42.3477 62.9522 40.1252C63.0107 37.7564 64.0653 35.5339 65.823 33.9841C67.4928 32.6096 69.6312 31.9078 71.799 31.9663C72.8829 31.9663 73.9375 32.171 74.9335 32.5804C75.6072 32.8436 76.2517 33.1652 76.8376 33.6039C78.0094 34.4812 77.4821 35.0368 76.5447 35.9434L75.9295 36.5575C75.4608 37.0254 75.1385 37.347 74.5234 36.9376C73.3516 36.0603 71.8283 35.7387 70.3929 36.0603C65.7937 37.2593 66.0573 45.4182 71.6818 45.4182C72.6778 45.3597 73.5859 45.038 74.3476 44.4532ZM202.1 48.9275C201.338 48.9275 200.694 48.3134 200.694 47.5238V29.4513C200.694 28.691 201.309 28.0477 202.1 28.0477H203.594C204.355 28.0477 205 28.6618 205 29.4513V47.553C205 48.3134 204.385 48.9567 203.594 48.9567L202.1 48.9275ZM194.219 46.8804C192.813 48.4011 190.792 49.2491 188.712 49.2199C184.025 49.2199 181.799 45.3597 181.799 41.0317V33.6916C181.799 32.9313 182.414 32.2879 183.205 32.2879H184.699C185.461 32.2879 186.105 32.902 186.105 33.6916V41.0025C185.841 43.108 187.335 45.0088 189.415 45.272C189.591 45.3012 189.767 45.3012 189.972 45.3012C192.315 45.2427 194.161 43.2834 194.102 40.9732C194.102 40.9147 194.102 40.8562 194.102 40.7978V38.1659C194.102 38.0781 194.102 37.9611 194.102 37.8734V33.6916C194.102 32.9313 194.717 32.2879 195.508 32.2879H197.002C197.764 32.2879 198.409 32.902 198.409 33.6916V47.5823C198.409 48.3426 197.793 48.9567 197.032 48.9567H195.772C195.01 48.9275 194.425 48.3426 194.395 47.5823V46.8804H194.219ZM176.233 32.3464H179.162C179.924 32.3464 180.539 32.9898 180.539 33.7501V34.7151C180.539 35.4755 179.924 36.1188 179.162 36.1188H176.233V47.553C176.233 48.3134 175.618 48.9567 174.827 48.9567H173.333C172.571 48.9567 171.927 48.3426 171.927 47.553V31.7616C171.634 28.4571 174.065 25.562 177.346 25.2695C177.375 25.2695 177.375 25.2695 177.405 25.2695H179.69C180.451 25.2695 181.066 25.9129 181.066 26.6732V27.5505C181.066 28.3108 180.451 28.9542 179.69 28.9542H178.576C176.907 28.9542 176.204 30.2409 176.204 31.7908L176.233 32.3464ZM165.804 32.3464H168.997C169.759 32.3464 170.374 32.9605 170.374 33.7209V34.6566C170.374 35.417 169.759 36.0311 168.997 36.0311H165.804V43.0202C165.804 44.3654 166.449 45.155 167.825 45.155H168.47C169.232 45.155 169.847 45.7691 169.847 46.5294V47.4653C169.847 48.2256 169.232 48.8397 168.47 48.8397H166.536C163.08 48.635 161.527 46.3832 161.527 43.0202V29.4806C161.527 28.7202 162.142 28.1061 162.904 28.1061H164.369C165.13 28.1061 165.746 28.7202 165.746 29.4806L165.804 32.3464ZM119.578 32.3464H122.771C123.533 32.3464 124.148 32.9605 124.148 33.7209V34.6566C124.148 35.417 123.533 36.0311 122.771 36.0311H119.666V43.0202C119.666 44.3654 120.31 45.155 121.687 45.155H122.332C123.093 45.155 123.708 45.7691 123.708 46.5294V47.4653C123.708 48.2256 123.093 48.8397 122.332 48.8397H121.365C117.586 48.8397 115.418 47.2313 115.418 42.991V29.4806C115.418 28.7202 116.033 28.1061 116.795 28.1061H118.26C119.021 28.1061 119.636 28.7202 119.636 29.4806V32.3464H119.578ZM100.83 34.3642C102.206 32.902 104.14 32.054 106.161 32.0247C110.819 32.0247 113.28 35.8556 113.28 40.2129V47.553C113.28 48.3134 112.664 48.9567 111.873 48.9567H110.379C109.618 48.9567 108.973 48.3426 108.973 47.553V40.2421C109.237 38.1366 107.743 36.2358 105.663 35.9726C105.487 35.9434 105.282 35.9434 105.107 35.9434C102.763 36.0018 100.917 37.9611 101.005 40.2714C101.005 40.3299 101.005 40.3591 101.005 40.4176V47.5238C101.005 48.2841 100.39 48.8982 99.6285 48.8982H98.1638C97.4021 48.8982 96.787 48.2841 96.787 47.5238V33.6624C96.787 32.902 97.4021 32.2879 98.1638 32.2879H99.4234C100.185 32.3172 100.771 32.902 100.8 33.6624L100.83 34.3642ZM147.085 34.3642C148.462 32.902 150.395 32.054 152.417 32.0247C157.074 32.0247 159.535 35.8556 159.535 40.2129V47.553C159.535 48.3134 158.92 48.9567 158.129 48.9567H156.635C155.873 48.9567 155.229 48.3426 155.229 47.553V40.2421C155.493 38.1366 153.999 36.2358 151.919 35.9726C151.743 35.9434 151.538 35.9434 151.362 35.9434C149.019 36.0018 147.173 37.9611 147.261 40.2714C147.261 40.3299 147.261 40.3591 147.261 40.4176V47.5238C147.261 48.2841 146.646 48.8982 145.884 48.8982H144.39C143.628 48.8982 143.013 48.2841 143.013 47.5238V33.6624C143.013 32.902 143.628 32.2879 144.39 32.2879H145.65C146.411 32.3172 146.997 32.902 147.027 33.6624V34.3935L147.085 34.3642ZM86.6219 31.9663C81.9934 31.82 78.1266 35.417 77.9801 40.0374C77.9801 40.2421 77.9801 40.4468 77.9801 40.6515C77.9801 45.4474 81.8762 49.3076 86.6512 49.3076C91.4261 49.3076 95.3222 45.4182 95.3222 40.6515C95.4687 36.0018 91.8362 32.1125 87.1785 31.9663C87.0027 31.9663 86.7976 31.9663 86.6219 31.9663ZM128.688 42.2014C129.216 44.3362 131.266 45.7691 133.463 45.4767C134.547 45.4474 135.631 45.2135 136.598 44.7748L137.066 44.5409C137.594 44.2485 138.062 44.073 138.531 44.5409L139.293 45.3012C139.527 45.5352 139.762 45.7984 139.967 46.0323C140.67 46.9096 140.172 47.1436 139.381 47.67C137.594 48.8397 135.514 49.4538 133.375 49.4538C127.868 49.4538 124.206 46.12 124.206 40.5638C124.001 35.9726 127.546 32.054 132.174 31.8493C132.497 31.8493 132.79 31.8493 133.112 31.8493C138.443 31.8493 141.519 34.9783 141.607 40.3299C141.607 41.792 141.695 42.2599 140.172 42.2599L128.688 42.2014ZM86.7683 35.8556C89.2876 35.9141 91.2796 37.9904 91.2211 40.5053C91.2211 40.5346 91.2211 40.593 91.2211 40.6223C91.4261 43.0202 89.6685 45.155 87.237 45.389C84.8349 45.5937 82.6964 43.8391 82.4621 41.4119C82.4328 41.1487 82.4328 40.8855 82.4621 40.6223C82.257 38.1951 84.0733 36.0603 86.5047 35.8849C86.6219 35.8849 86.739 35.8849 86.8269 35.8849L86.7683 35.8556ZM128.893 38.5753H137.447C137.096 36.616 135.25 35.3 133.288 35.5924C131.325 35.5047 129.538 36.7329 128.893 38.5753Z" fill="white"/>
<path id="Vector_2" d="M48.7716 33.2534C48.7716 33.2534 51.6424 36.5579 54.5426 33.5166C57.4427 30.4753 52.8435 27.2 52.8435 27.2C52.8435 27.2 43.3522 18.7487 31.9567 27.2877C31.9567 27.2877 25.7171 32.0544 26.01 40.9152C26.3029 49.7759 33.773 53.9577 33.773 53.9577C33.773 53.9577 42.8249 60.0695 52.4041 53.2266C52.4041 53.2266 57.0619 50.7701 54.3961 46.7053C54.3961 46.7053 51.7596 43.7518 49.4747 46.2374C47.1897 48.7231 41.2723 51.4135 35.97 46.4422C30.6678 41.4708 33.5386 31.1479 41.946 30.8262C41.946 30.8262 45.5492 30.3583 48.7716 33.2534Z" stroke="white" stroke-miterlimit="10"/>
<path id="Vector_3" d="M33.277 34.4225C35.2508 34.4225 36.8509 32.8252 36.8509 30.8548C36.8509 28.8844 35.2508 27.2871 33.277 27.2871C31.3032 27.2871 29.7031 28.8844 29.7031 30.8548C29.7031 32.8252 31.3032 34.4225 33.277 34.4225Z" stroke="white" stroke-miterlimit="10"/>
<path id="Vector_4" d="M33.4489 52.6129C35.4227 52.6129 37.0228 51.0157 37.0228 49.0453C37.0228 47.0748 35.4227 45.4775 33.4489 45.4775C31.4751 45.4775 29.875 47.0748 29.875 49.0453C29.875 51.0157 31.4751 52.6129 33.4489 52.6129Z" stroke="white" stroke-miterlimit="10"/>
</g>
</g>
</svg>
