<svg width="232" height="81" viewBox="0 0 232 81" fill="none" xmlns="http://www.w3.org/2000/svg">
<g clip-path="url(#clip0_1225_9705)">
<path d="M70.7267 20.8887H51V60.209H70.7267C80.5925 60.209 90.4528 51.4063 90.4528 40.5515C90.4528 29.6968 80.5925 20.8887 70.7267 20.8887ZM70.7267 49.4823C68.9424 49.4816 67.1984 48.957 65.7152 47.9748C64.2321 46.9926 63.0763 45.5969 62.3941 43.9643C61.7119 42.3316 61.5339 40.5353 61.8827 38.8025C62.2314 37.0696 63.0912 35.4781 64.3533 34.2292C65.6154 32.9802 67.2232 32.13 68.9733 31.7859C70.7234 31.4418 72.5372 31.6193 74.1854 32.2961C75.8337 32.9728 77.2422 34.1183 78.233 35.5878C79.2238 37.0572 79.7523 38.7846 79.7517 40.5515C79.7517 41.7249 79.5183 42.8868 79.0647 43.9708C78.6111 45.0547 77.9462 46.0396 77.1081 46.869C76.2699 47.6984 75.2749 48.3561 74.18 48.8045C73.085 49.2529 71.9116 49.4832 70.7267 49.4823Z" fill="white"/>
<path d="M110.699 20.8957C116.636 20.8957 119.682 24.4602 119.682 29.3652V33.7519C119.682 38.6565 116.636 42.2209 110.699 42.2209H101.285V20.8957H110.699ZM114.391 29.3364C114.391 26.6255 112.945 25.1935 109.745 25.1935H106.546V37.9251H109.745C112.945 37.9251 114.391 36.4932 114.391 33.7822V29.3364ZM136.071 38.2622H128.288L127.088 42.2229H121.797L129.487 20.8957H134.902L142.593 42.2209H137.302L136.071 38.2622ZM129.58 34.0583H134.779L132.195 25.62L129.58 34.0583ZM159.323 20.8957V25.3147H153.507V42.2209H148.217V25.3132H142.401V20.8957H159.323ZM172.131 42.6474C165.609 42.6474 162.256 38.504 162.256 32.9292V30.1875C162.256 24.6126 165.609 20.4697 172.131 20.4697C178.653 20.4697 182.008 24.6126 182.008 30.1875V32.9292C182.006 38.504 178.653 42.6474 172.131 42.6474ZM172.131 24.8256C169.055 24.8256 167.547 26.8673 167.547 29.9134V33.2033C167.547 36.2499 169.055 38.291 172.131 38.291C175.207 38.291 176.715 36.2499 176.715 33.2033V29.9134C176.715 26.8673 175.208 24.8256 172.131 24.8256ZM106.004 57.8293C106.339 57.8561 106.676 57.8132 106.994 57.7035C107.311 57.5937 107.602 57.4195 107.847 57.1919C108.093 56.9643 108.288 56.6884 108.419 56.382C108.551 56.0755 108.616 55.7452 108.611 55.4123H111.596C111.559 58.1639 109.513 60.4697 106.039 60.4697C101.984 60.4697 100.031 57.941 100.031 54.5573V52.8468C100.031 49.463 101.984 46.9348 106.039 46.9348C109.513 46.9348 111.559 49.2396 111.596 51.9913H108.611C108.616 51.6583 108.551 51.328 108.419 51.0216C108.288 50.7151 108.093 50.4392 107.847 50.2117C107.602 49.9841 107.311 49.8098 106.994 49.7001C106.676 49.5903 106.339 49.5475 106.004 49.5743C104.051 49.5743 103.262 50.8573 103.262 52.6978V54.7057C103.262 56.5463 104.053 57.8293 106.004 57.8293ZM124.583 47.1945H127.55V60.2091H124.452V53.3304L122.386 57.3084H119.833L117.787 53.3304V60.2091H114.689V47.1945H117.655L121.11 54.2782L124.583 47.1945ZM135.997 60.4697C132.843 60.4697 130.721 58.9802 130.721 56.3606V56.0071H133.819V56.2682C133.819 57.365 134.532 58.0343 136.015 58.0343C137.349 58.0343 138.231 57.4951 138.231 56.4912C138.256 56.2216 138.177 55.9526 138.009 55.7387C137.842 55.5247 137.599 55.3818 137.329 55.3388L134.043 54.5205C131.996 54.0185 130.945 53.1263 130.945 51.0067C130.945 48.4224 132.804 46.9353 135.92 46.9353C138.868 46.9353 140.746 48.5152 140.746 50.895V51.2113H137.762V50.9883C137.762 50.114 137.273 49.3891 135.922 49.3891C134.795 49.3891 134.082 49.7793 134.082 50.7088C134.061 50.9586 134.137 51.2069 134.294 51.4036C134.45 51.6003 134.677 51.7309 134.927 51.7689L138.419 52.6983C140.521 53.2559 141.366 54.4088 141.366 56.2121C141.366 58.8149 139.038 60.4697 135.997 60.4697Z" fill="white"/>
</g>
<defs>
<clipPath id="clip0_1225_9705">
<rect width="131" height="40" fill="white" transform="translate(51 20.4697)"/>
</clipPath>
</defs>
</svg>
