<svg width="163" height="56" viewBox="0 0 163 56" fill="none" xmlns="http://www.w3.org/2000/svg">
<g clip-path="url(#clip0_1557_2957)">
<path d="M42.7206 34.6209L36.6285 31.028C36.5546 30.9826 36.5053 30.902 36.5053 30.8113V25.2581C36.5053 25.1623 36.6088 25.1018 36.6877 25.1472L43.7605 29.3197C43.8591 29.3801 43.9823 29.3046 43.9823 29.1887V26.4826C43.9823 26.3768 43.9281 26.276 43.8345 26.2206L35.3273 21.2015C35.2534 21.1561 35.1548 21.1561 35.0809 21.2015L33.967 21.8616C33.893 21.907 33.8438 21.9876 33.8438 22.0783V32.3936C33.8438 32.4843 33.893 32.5649 33.967 32.6103L42.7058 37.7704C42.7797 37.8158 42.8783 37.8158 42.9522 37.7704L50.2912 33.4367C50.3898 33.3762 50.3898 33.2351 50.2912 33.1747L48.0043 31.8242C47.9106 31.7687 47.8022 31.7687 47.7085 31.8242L42.9719 34.6209C42.898 34.6663 42.7994 34.6663 42.7255 34.6209H42.7206Z" fill="white"/>
<path d="M51.6931 21.8566L42.9543 16.7015C42.8804 16.6561 42.7818 16.6561 42.7079 16.7015L38.0896 19.4277C37.991 19.4882 37.991 19.6293 38.0896 19.6898L40.3568 21.0302C40.4505 21.0856 40.5589 21.0856 40.6525 21.0302L42.7227 19.8107C42.7966 19.7653 42.8952 19.7653 42.9691 19.8107L49.0611 23.4037C49.135 23.449 49.1843 23.5296 49.1843 23.6203V29.1988C49.1843 29.3046 49.2386 29.4054 49.3322 29.4608L51.5995 30.7962C51.698 30.8567 51.8213 30.7811 51.8213 30.6652V22.0783C51.8213 21.9876 51.772 21.907 51.698 21.8617L51.6931 21.8566Z" fill="white"/>
<path d="M129.16 21.439C129.16 22.4166 128.431 23.112 127.534 23.112C126.637 23.112 125.902 22.4115 125.902 21.439C125.902 20.4664 126.637 19.771 127.534 19.771C128.431 19.771 129.16 20.4714 129.16 21.439ZM128.934 21.439C128.934 20.5924 128.313 19.9877 127.534 19.9877C126.755 19.9877 126.134 20.5924 126.134 21.439C126.134 22.2856 126.755 22.8953 127.534 22.8953C128.313 22.8953 128.934 22.2906 128.934 21.439ZM126.849 22.2956V20.5269H127.642C128.061 20.5269 128.308 20.7234 128.308 21.1064C128.308 21.3735 128.16 21.5398 127.977 21.6204L128.367 22.3007H127.928L127.573 21.6859H127.258V22.3007H126.854L126.849 22.2956ZM127.583 21.3583C127.81 21.3583 127.899 21.2777 127.899 21.1064C127.899 20.9351 127.805 20.8595 127.583 20.8595H127.253V21.3583H127.583Z" fill="white"/>
<path d="M60.8159 29.1837V34.6916H58.1543V19.7402H64.197C67.6571 19.7402 69.668 21.3528 69.668 24.4721C69.668 27.5913 67.662 29.1837 64.2167 29.1837H60.8159ZM63.9703 27.0068C65.9763 27.0068 66.9818 26.1703 66.9818 24.4721C66.9818 22.7738 65.9763 21.9373 63.9703 21.9373H60.8159V27.0068H63.9703Z" fill="white"/>
<path d="M76.2027 33.019C75.7098 34.2334 74.3988 34.9238 72.7427 34.9238C70.7169 34.9238 69.2383 33.7698 69.2383 31.8448C69.2383 29.7082 70.8747 28.8314 72.9891 28.5794L76.1041 28.2216V27.7177C76.1041 26.4176 75.3254 25.7927 74.1375 25.7927C72.9497 25.7927 72.2942 26.4428 72.2104 27.4254H69.6917C69.9185 25.1427 71.6583 23.8022 74.2164 23.8022C77.0455 23.8022 78.6622 25.1628 78.6622 27.9294V32.0363C78.6622 33.019 78.7016 33.8404 78.8692 34.697H76.3506C76.2471 34.1125 76.2076 33.5431 76.2076 33.024L76.2027 33.019ZM76.0992 30.5649V29.9148L73.7827 30.1869C72.6786 30.3331 71.8358 30.585 71.8358 31.6937C71.8358 32.5302 72.4075 33.0542 73.4524 33.0542C74.8029 33.0542 76.0943 32.2379 76.0943 30.5598L76.0992 30.5649Z" fill="white"/>
<path d="M78.3975 24.0537H81.059L83.9473 32.0761H83.9867L86.7321 24.0537H89.3345L85.2781 34.883C84.2923 37.5437 83.0848 38.5717 80.8964 38.5919C80.5464 38.5919 80.0585 38.5515 79.6888 38.486V36.4552C79.9944 36.5207 80.162 36.5207 80.3838 36.5207C81.4484 36.5207 81.8969 36.1428 82.4539 34.6764L78.3975 24.0588V24.0537Z" fill="white"/>
<path d="M89.7676 34.6916V19.7402H92.3897V34.6916H89.7676Z" fill="white"/>
<path d="M98.3109 34.9438C95.2402 34.9438 93.0469 32.8273 93.0469 29.3755C93.0469 25.9236 95.2402 23.8071 98.3109 23.8071C101.382 23.8071 103.575 25.9438 103.575 29.3755C103.575 32.8072 101.382 34.9438 98.3109 34.9438ZM98.3109 32.9533C99.9916 32.9533 100.953 31.6129 100.953 29.3704C100.953 27.128 99.9916 25.7875 98.3109 25.7875C96.6301 25.7875 95.669 27.1481 95.669 29.3704C95.669 31.5927 96.6104 32.9533 98.3109 32.9533Z" fill="white"/>
<path d="M110.829 33.019C110.336 34.2334 109.025 34.9238 107.369 34.9238C105.343 34.9238 103.864 33.7698 103.864 31.8448C103.864 29.7082 105.501 28.8314 107.615 28.5794L110.73 28.2216V27.7177C110.73 26.4176 109.951 25.7927 108.764 25.7927C107.576 25.7927 106.92 26.4428 106.836 27.4254H104.318C104.544 25.1427 106.284 23.8022 108.847 23.8022C111.676 23.8022 113.293 25.1628 113.293 27.9294V32.0363C113.293 33.019 113.333 33.8404 113.5 34.697H110.981C110.878 34.1125 110.839 33.5431 110.839 33.024L110.829 33.019ZM110.725 30.5649V29.9148L108.409 30.1869C107.305 30.3331 106.462 30.585 106.462 31.6937C106.462 32.5302 107.033 33.0542 108.078 33.0542C109.429 33.0542 110.72 32.2379 110.72 30.5598L110.725 30.5649Z" fill="white"/>
<path d="M121.823 32.9984C121.31 34.0667 120.059 34.9486 118.481 34.9486C115.756 34.9486 113.893 32.686 113.893 29.3803C113.893 26.0745 115.756 23.8119 118.481 23.8119C120.098 23.8119 121.286 24.7341 121.779 25.8024V19.7402H124.401V34.6916H121.818V32.9934L121.823 32.9984ZM121.848 29.1837C121.848 27.1126 120.887 25.7671 119.226 25.7671C117.565 25.7671 116.539 27.1932 116.539 29.3702C116.539 31.5471 117.525 32.9732 119.226 32.9732C120.926 32.9732 121.848 31.6328 121.848 29.5566V29.1787V29.1837Z" fill="white"/>
</g>
<defs>
<clipPath id="clip0_1557_2957">
<rect width="95.3136" height="22.1017" fill="white" transform="translate(33.8428 16.5762)"/>
</clipPath>
</defs>
</svg>
