<svg width="232" height="81" viewBox="0 0 232 81" fill="none" xmlns="http://www.w3.org/2000/svg">
<g id="Logo">
<g id="Vector">
<path d="M175.231 43.738V54.0229H169.664V43.738" fill="white"/>
<path d="M169.664 43.738L179.085 26.912H185L175.231 43.7335H169.664V43.738Z" fill="white"/>
<path d="M169.664 43.738L159.983 26.912H166.074L172.632 38.4391L169.664 43.7335V43.738Z" fill="white"/>
<path d="M149.993 36.3839V54.0229H144.343V39.3952L149.993 36.3839Z" fill="white"/>
<path d="M144.343 39.3818L158.67 31.858L156.248 27.6582L144.343 33.6272V39.3818Z" fill="white"/>
<path d="M135.71 31.858V26.912H155.821L158.67 31.858H135.71Z" fill="white"/>
<path d="M132.468 26.912H126.857V54.0274H132.468V26.912Z" fill="white"/>
<path d="M103.989 34.9854V54.0229H98.5981V26.912L103.989 34.9854Z" fill="white"/>
<path d="M104.822 26.912L116.691 45.4357V54.0229L98.5981 26.912H104.822Z" fill="white"/>
<path d="M116.691 26.912H122.083V54.0229H116.691L116.691 26.912Z" fill="white"/>
<path d="M74.3604 54.4653L87.5693 47.3793L85.9397 43.0544L77.2453 47.2139L74.3604 54.4653Z" fill="white"/>
<path d="M82.5262 33.9355L74.3604 54.4653L70.1586 50.7569L79.888 26.912L82.5262 33.9355Z" fill="white"/>
<path d="M79.888 26.912H85.4552L95.7528 54.0229H90.0534L79.888 26.912Z" fill="white"/>
<path d="M49.2595 30.044C49.2595 33.8193 51.5718 36.0667 56.2053 37.2506L61.1118 38.3989C65.4943 39.4131 68.1633 41.9329 68.1633 46.0389C68.1986 47.826 67.6216 49.573 66.5293 50.9848C66.5293 46.8878 64.4284 44.6762 59.3545 43.3448L54.536 42.2412C50.6777 41.3521 47.7003 39.2835 47.7003 34.8246C47.6783 33.1045 48.2288 31.4246 49.2595 30.0485" fill="white"/>
<path d="M63.5167 45.0292C65.6088 46.3785 66.5293 48.2684 66.5293 50.9759C64.7984 53.2143 61.7549 54.4697 58.1741 54.4697C52.1532 54.4697 47.9381 51.4807 47 46.2936H52.783C53.5274 48.6749 55.5006 49.783 58.13 49.783C61.3409 49.783 63.477 48.0539 63.5211 45.0247" fill="white"/>
<path d="M52.2677 35.6378C51.3119 35.0659 50.528 34.2438 49.9994 33.2564C49.4709 32.269 49.2154 31.161 49.2639 30.0395C50.9332 27.8235 53.8401 26.4697 57.3857 26.4697C63.5211 26.4697 67.0666 29.7357 67.9431 34.3331H62.3803C61.7681 32.5192 60.2309 31.1118 57.4297 31.1118C54.4391 31.1118 52.3954 32.8677 52.2809 35.6422" fill="white"/>
</g>
</g>
</svg>
