<svg width="232" height="81" viewBox="0 0 232 81" fill="none" xmlns="http://www.w3.org/2000/svg">
<g id="Logo">
<g id="sb-partner-logo">
<path id="Shape" d="M80.0912 48.0613C78.859 48.0613 77.6621 47.8736 76.4651 47.4605C75.3419 47.0723 74.3095 46.4322 73.4375 45.5831L75.0217 42.7293C75.9018 43.3677 76.7467 43.8558 77.5917 44.2313C78.4014 44.6068 79.2111 44.757 79.9856 44.757C80.5488 44.757 81.0065 44.6443 81.3233 44.419C81.6402 44.2313 81.781 43.8933 81.781 43.4803C81.781 43.1048 81.605 42.7293 81.1825 42.504C80.5209 42.1658 79.8235 41.9137 79.1055 41.753L76.6411 40.8894C75.9722 40.589 75.4442 40.2886 75.0217 39.9507C74.5993 39.6503 74.2824 39.2372 74.1064 38.8242C73.9148 38.3502 73.8188 37.8384 73.8248 37.3222C73.8041 35.8442 74.4126 34.4358 75.4794 33.4922C75.9722 33.0416 76.6059 32.7037 77.31 32.4408C78.0141 32.178 78.7886 32.0653 79.5983 32.0653C80.6897 32.0653 81.7106 32.2155 82.6611 32.5159C83.6117 32.8539 84.527 33.4171 85.4071 34.2432L83.6821 37.0594C83.0006 36.5394 82.2689 36.0988 81.4994 35.7452C80.8305 35.4448 80.232 35.3321 79.5983 35.3321C79.1407 35.3321 78.7182 35.4072 78.4014 35.6325C78.0493 35.8203 77.9085 36.1582 77.9085 36.6088C77.9085 37.0594 78.0845 37.3598 78.4366 37.5851C78.7886 37.8104 79.4927 38.0357 80.4432 38.2985C81.3257 38.5356 82.1954 38.8239 83.0484 39.1621C83.7525 39.4625 84.3157 39.8005 84.7734 40.1384C85.6389 40.8182 86.1173 41.9237 86.0408 43.0673C86.0408 44.6068 85.5127 45.8084 84.4214 46.7095C83.3652 47.6107 81.957 48.0613 80.0912 48.0613ZM97.5175 46.9724C96.919 47.2352 96.2149 47.4981 95.4404 47.7234C94.6659 47.9487 93.8914 48.0989 93.0817 48.0989C92.5184 48.0989 92.0256 48.0238 91.5327 47.8736C91.0535 47.7246 90.6095 47.4686 90.2301 47.1226C89.8781 46.8222 89.5964 46.3716 89.3852 45.8835C89.174 45.3578 89.0332 44.7194 89.0332 43.9684V35.8954H87.2025V32.3657H89.0684V27.4468H93.4338V32.3282H96.3909V35.8954H93.4338V42.3538C93.4338 42.842 93.5394 43.2175 93.7858 43.4803C94.0322 43.6681 94.3491 43.7807 94.7011 43.7807C95.0532 43.7807 95.4052 43.7432 95.7221 43.593C96.0741 43.4803 96.3909 43.3677 96.6374 43.2175L97.4823 46.9724H97.5175ZM105.755 48.0613C104.635 48.0822 103.522 47.8652 102.481 47.423C100.649 46.65 99.2145 45.0786 98.5384 43.1048C97.8468 41.1443 97.8468 38.9824 98.5384 37.0218C99.2145 35.0481 100.649 33.4767 102.481 32.7037C103.432 32.2906 104.523 32.0653 105.755 32.0653C107.898 31.9577 109.98 32.8484 111.459 34.506C112.127 35.2195 112.62 36.0831 112.972 37.0218C113.693 38.9896 113.693 41.1746 112.972 43.1424C112.292 45.0918 110.874 46.6456 109.065 47.423C108.013 47.8701 106.887 48.0872 105.755 48.0613ZM102.587 40.1009C102.587 41.3025 102.869 42.2787 103.467 42.9922C104.101 43.7432 104.875 44.1186 105.791 44.1186C106.675 44.1369 107.518 43.7217 108.079 42.9922C108.361 42.6167 108.572 42.2412 108.748 41.7155C108.924 41.2274 108.994 40.6641 108.994 40.1009C108.994 38.8618 108.677 37.8855 108.079 37.172C107.48 36.4211 106.706 36.0455 105.791 36.0455C104.91 36.0434 104.072 36.4555 103.502 37.172C103.221 37.5475 102.974 37.923 102.798 38.4487C102.639 38.9824 102.568 39.5413 102.587 40.1009ZM124.872 36.3835C123.815 36.3835 122.83 36.5712 121.95 36.9467C121.175 37.2254 120.515 37.783 120.084 38.5238V47.7985H115.683V32.3657H119.732V35.4448C120.225 34.3934 120.858 33.5673 121.668 33.0041C122.442 32.4033 123.252 32.1029 124.132 32.0653H124.59L124.872 32.1029V36.346V36.3835ZM126.808 50.089C127.42 50.316 128.061 50.4426 128.709 50.4645C129.237 50.4645 129.659 50.2767 129.976 49.9012C130.258 49.5257 130.504 48.7747 130.751 47.7985L125.259 32.3657H129.8L133.145 43.7432L136.067 32.3657H140.186L134.658 50.2767C133.791 53.3189 130.885 55.1463 127.97 54.4822C127.617 54.4071 127.195 54.2945 126.808 54.1067V50.089ZM150.606 48.0615C149.515 48.0615 148.529 47.836 147.719 47.3103C146.897 46.8283 146.215 46.1138 145.748 45.2451V47.7985H141.911V26.3203H146.346V34.8815C147.309 33.0843 149.124 32.001 151.064 32.0653C151.979 32.0653 152.824 32.2531 153.599 32.7037C154.373 33.0792 155.007 33.68 155.605 34.3934C157.338 36.9585 157.81 40.2555 156.873 43.255C156.521 44.2313 156.028 45.0949 155.429 45.8084C154.193 47.2538 152.44 48.0725 150.606 48.0615ZM149.374 44.1187C150.803 44.1219 152.076 43.1563 152.542 41.7155C153.059 40.2029 152.806 38.5131 151.874 37.2471C151.323 36.4741 150.46 36.0277 149.55 36.0456C148.881 36.0456 148.247 36.3084 147.649 36.7965C147.086 37.3222 146.628 37.9606 146.311 38.7491V41.9783C146.879 43.2559 148.084 44.0732 149.409 44.0811L149.374 44.1187ZM159.513 26.3203H163.914V42.2787C163.914 43.4803 164.371 44.0435 165.322 44.0435C165.824 44.0451 166.32 43.9162 166.765 43.6681L167.364 47.1601C166.131 47.7361 164.802 48.0425 163.456 48.0613C162.188 48.0613 161.203 47.6858 160.534 47.0099C159.83 46.2589 159.478 45.2827 159.478 43.9309V26.3203H159.513ZM175.672 48.0613C174.552 48.0822 173.439 47.8652 172.398 47.423C170.555 46.6547 169.108 45.0836 168.42 43.1048C167.402 40.1536 167.968 36.8455 169.898 34.4685C170.602 33.7175 171.377 33.1543 172.363 32.7037C173.313 32.2906 174.405 32.0653 175.637 32.0653C177.78 31.9577 179.861 32.8484 181.34 34.506C182.044 35.2195 182.502 36.0831 182.854 37.0218C183.912 39.9692 183.342 43.2999 181.375 45.6582C180.706 46.4091 179.896 47.0099 178.911 47.423C177.87 47.8652 176.757 48.0822 175.637 48.0613H175.672ZM172.468 40.1009C172.468 41.3025 172.75 42.2787 173.348 42.9922C173.982 43.7432 174.757 44.1186 175.672 44.1186C176.555 44.1313 177.396 43.7173 177.96 42.9922C178.242 42.6167 178.453 42.2412 178.629 41.7155C178.805 41.2274 178.876 40.6641 178.876 40.1009C178.876 38.8618 178.559 37.8855 177.96 37.172C177.362 36.4211 176.587 36.0455 175.672 36.0455C174.791 36.0434 173.954 36.4555 173.384 37.172C173.102 37.5475 172.856 37.923 172.679 38.4487C172.503 38.9744 172.468 39.5001 172.468 40.1009ZM195.316 47.7985L191.549 41.5653L190 43.2926V47.7985H185.6V26.3203H190V38.7491L194.894 32.3657H199.576L194.366 39.0119L199.998 47.7985H195.316Z" fill="white"/>
<path id="Subtract" fill-rule="evenodd" clip-rule="evenodd" d="M31 23.0994C31 22.2105 31.6962 21.4697 32.5665 21.4697L59.8938 21.4697C60.7641 21.4697 61.2514 22.2475 61.2514 23.1364V52.2105C61.2514 53.1364 60.7293 53.6919 59.8938 53.6919H41.5828L36.5699 59.4697V53.6549H32.5317C31.6962 53.6549 31 53.0994 31 52.2105V23.0994ZM52.4392 27.7693C51.8826 27.4361 51.2911 27.2881 50.5953 27.2881H36.6094V48.0154H48.9254C49.8647 48.0154 50.7693 47.8303 51.6042 47.6082C52.4392 47.4231 53.1698 47.016 53.8309 46.5718C54.4571 46.1647 54.979 45.6095 55.3269 44.9433C55.6554 44.3242 55.8139 43.4998 55.8139 42.5744C55.8139 41.1309 55.5008 39.9835 54.8746 39.0952C54.2136 38.2439 53.3438 37.6517 52.2305 37.3186C53.1149 36.9163 53.849 36.2134 54.3179 35.3199C54.7702 34.4316 55.0138 33.5063 55.0138 32.5439C55.0292 31.2363 54.6103 29.9649 53.8309 28.9537C53.4482 28.4725 52.9611 28.0654 52.4392 27.7693ZM41.6245 38.8724H48.5972C48.9995 38.8724 49.3012 39.0824 49.5694 39.4326C49.8186 39.8005 49.9478 40.2424 49.9381 40.693C49.9381 41.2182 49.7705 41.6384 49.5023 41.9185C49.2006 42.1986 48.8319 42.3736 48.4296 42.3736H41.6245V38.8724ZM41.6245 31.8698H48.0273C48.3626 31.8698 48.6643 32.0099 48.8989 32.2199C49.1336 32.465 49.2677 32.8502 49.2677 33.3754C49.2677 33.9706 49.1336 34.4257 48.8319 34.6358C48.5637 34.8459 48.2285 35.021 47.8932 35.021H41.6245V31.8698Z" fill="white"/>
</g>
</g>
</svg>
