<svg width="232" height="81" viewBox="0 0 232 81" fill="none" xmlns="http://www.w3.org/2000/svg">
<g id="Logo">
<g id="Container">
<path id="Vector" d="M66.6732 32.7502C66.6748 34.1344 66.3575 35.5013 65.7447 36.7505C65.1319 37.9997 64.2393 39.0993 63.1322 39.9686L37.6728 25.9071C37.5754 25.8531 37.485 25.7879 37.4037 25.7129C37.276 25.5912 37.1745 25.4459 37.1052 25.2855C37.0359 25.1251 37.0001 24.9529 37 24.779C37 24.4318 37.1418 24.0987 37.3941 23.8532C37.6464 23.6077 37.9887 23.4697 38.3455 23.4697H57.1357C59.6652 23.4697 62.0911 24.4475 63.8797 26.1879C65.6684 27.9284 66.6732 30.2889 66.6732 32.7502Z" fill="white"/>
<path id="Vector_2" d="M66.6744 47.187C66.6747 48.4058 66.4282 49.6129 65.9491 50.7391C65.4699 51.8653 64.7674 52.8887 63.8817 53.7507C62.9961 54.6127 61.9446 55.2964 60.7873 55.763C59.63 56.2295 58.3896 56.4696 57.1369 56.4696H38.3467C38.0805 56.4669 37.8212 56.3873 37.6015 56.2411C37.3818 56.0949 37.2116 55.8885 37.1124 55.6481C37.0133 55.4078 36.9897 55.1442 37.0445 54.8907C37.0993 54.6372 37.2302 54.4053 37.4205 54.2242C37.4964 54.1502 37.5815 54.0856 37.6739 54.0322L47.6936 48.4984L63.1312 39.9707C64.238 40.8398 65.1308 41.939 65.744 43.1878C66.3571 44.4365 66.675 45.803 66.6744 47.187Z" fill="white"/>
<path id="Vector_3" d="M63.1323 39.9686L47.6924 48.4985L37.6728 54.0323C37.5766 54.0842 37.4877 54.1481 37.4082 54.2221C41.2286 50.4094 43.3647 45.2937 43.3599 39.9686C43.3671 34.6428 41.2316 29.5259 37.4104 25.7129C37.4918 25.7879 37.5822 25.8531 37.6795 25.9071L63.1323 39.9686Z" fill="white"/>
<path id="Vector_4" d="M87.5389 35.5724C91.9409 35.5724 94.4279 38.9939 94.4279 43.1377C94.4279 47.2815 91.9409 50.6769 87.5389 50.6769C85.2515 50.6769 83.5024 49.7866 82.5358 48.2766L82.1367 50.3365H79.3828V30.4531H82.7915V37.7959C83.6212 36.563 85.2515 35.5724 87.5389 35.5724ZM86.8527 47.755C89.425 47.755 91.0263 45.7257 91.0263 43.1377C91.0263 40.4952 89.425 38.492 86.8527 38.492C84.2805 38.492 82.6771 40.4908 82.6771 43.1377C82.6771 45.7279 84.2514 47.755 86.8527 47.755Z" fill="white"/>
<path id="Vector_5" d="M106.407 44.3901V35.9082H109.809V44.222C109.809 47.9316 108.066 50.6767 103.263 50.6767C98.4594 50.6767 96.7168 47.9229 96.7168 44.222V35.9082H100.119V44.3901C100.119 46.642 101.204 47.7549 103.258 47.7549C105.313 47.7549 106.407 46.642 106.407 44.3901Z" fill="white"/>
<path id="Vector_6" d="M112.531 31.4555C112.52 31.1651 112.57 30.8755 112.68 30.6049C112.789 30.3344 112.955 30.0889 113.166 29.8839C113.378 29.6789 113.631 29.5187 113.91 29.4137C114.188 29.3086 114.487 29.2609 114.785 29.2735C116.077 29.2735 117.007 30.179 117.007 31.4665C117.007 32.7539 116.077 33.5984 114.785 33.5984C113.493 33.5984 112.531 32.7103 112.531 31.4555Z" fill="white"/>
<path id="Vector_7" d="M173.222 31.4561C173.211 31.1666 173.261 30.8779 173.37 30.6082C173.479 30.3384 173.643 30.0935 173.854 29.8886C174.064 29.6837 174.316 29.5234 174.593 29.4176C174.871 29.3119 175.167 29.263 175.465 29.274C176.757 29.274 177.687 30.1796 177.687 31.467C177.687 32.7545 176.757 33.5989 175.465 33.5989C174.173 33.5989 173.222 32.7108 173.222 31.4561Z" fill="white"/>
<path id="Vector_8" d="M166.677 48.3263C166.666 48.0367 166.715 47.7479 166.824 47.478C166.933 47.2081 167.098 46.963 167.308 46.7581C167.519 46.5531 167.771 46.3928 168.048 46.2872C168.325 46.1815 168.622 46.1329 168.92 46.1442C170.212 46.1442 171.142 47.0498 171.142 48.3263C171.142 49.6028 170.212 50.4604 168.92 50.4604C167.628 50.4604 166.677 49.5832 166.677 48.3263Z" fill="white"/>
<path id="Vector_9" d="M116.47 35.9062H113.068V50.3431H116.47V35.9062Z" fill="white"/>
<path id="Vector_10" d="M119.873 50.343V30.4531H123.275V50.3474L119.873 50.343Z" fill="white"/>
<path id="Vector_11" d="M137.311 30.4531H140.713V50.3474H137.965L137.566 48.2875C136.624 49.791 134.875 50.6878 132.565 50.6878C128.19 50.6878 125.703 47.2663 125.703 43.1486C125.703 39.031 128.19 35.5832 132.565 35.5832C134.88 35.5832 136.481 36.5827 137.311 37.8068V30.4531ZM133.274 38.4964C130.702 38.4964 129.101 40.4996 129.101 43.1421C129.101 45.7301 130.702 47.7594 133.274 47.7594C135.846 47.7594 137.447 45.7301 137.447 43.1421C137.452 40.4908 135.88 38.492 133.279 38.492L133.274 38.4964Z" fill="white"/>
<path id="Vector_12" d="M157.321 46.3934C156.264 48.9791 153.804 50.6768 150.575 50.6768C146.09 50.6768 143.175 47.4211 143.175 43.1093C143.175 38.9087 146.148 35.5723 150.551 35.5723C154.953 35.5723 157.841 38.8258 157.841 43.0547C157.855 43.3997 157.824 43.7451 157.749 44.0825H146.516C146.772 46.365 148.288 47.8379 150.661 47.8379C152.291 47.8379 153.634 47.0589 154.262 45.6144L157.321 46.3934ZM146.572 41.6364H154.464C154.177 39.6332 152.748 38.2694 150.546 38.2694C148.344 38.2694 146.916 39.6616 146.572 41.6364Z" fill="white"/>
<path id="Vector_13" d="M168.242 38.8814C167.986 38.8469 167.729 38.828 167.47 38.8247C165.069 38.8247 163.64 40.0489 163.64 42.8311V50.3419H160.238V35.9072H162.986L163.382 37.9082C163.925 36.9917 165.176 35.7676 167.757 35.7676C167.899 35.7676 168.242 35.7959 168.242 35.7959V38.8814Z" fill="white"/>
<path id="Vector_14" d="M177.163 35.9062H173.762V50.3431H177.163V35.9062Z" fill="white"/>
<path id="Vector_15" d="M179.592 43.1376C179.592 39.0768 182.565 35.5723 187.282 35.5723C191.998 35.5723 195 39.0768 195 43.1376C195 47.1986 192.029 50.6768 187.282 50.6768C182.534 50.6768 179.592 47.1986 179.592 43.1376ZM187.282 47.755C189.771 47.755 191.598 45.9198 191.598 43.1376C191.598 40.3554 189.771 38.4919 187.282 38.4919C184.792 38.4919 182.989 40.3271 182.989 43.1376C182.989 45.9482 184.824 47.755 187.282 47.755Z" fill="white"/>
</g>
</g>
</svg>
