<svg width="233" height="80" viewBox="0 0 233 80" fill="none" xmlns="http://www.w3.org/2000/svg">
<g clip-path="url(#clip0_1229_3263)">
<path fill-rule="evenodd" clip-rule="evenodd" d="M77.7615 44.7181C77.488 44.6497 77.2601 44.5813 77.055 44.4902C76.9093 44.4254 76.7866 44.3492 76.6787 44.2614C76.596 44.1941 76.561 44.0866 76.571 43.9805C76.6782 42.8425 76.5589 41.837 76.6676 40.7072C77.1234 36.1038 80.0176 37.5623 82.6156 36.8102C84.0931 36.394 85.5706 35.5788 86.1284 33.9827C86.2314 33.6881 86.1433 33.3661 85.9369 33.132C84.2436 31.2123 82.3706 29.515 80.3366 28.0592C73.4936 23.1871 64.6061 21.1557 56.4347 22.3206C56.0898 22.3697 55.909 22.7516 56.099 23.0436C57.1025 24.5857 58.4094 25.8571 59.9047 26.8089C60.2192 27.0091 60.0905 27.4292 59.7283 27.3409C58.9872 27.1603 58.0718 26.829 57.2059 26.2218C57.1061 26.1518 56.9779 26.1342 56.8646 26.1793C56.4679 26.3375 55.911 26.5595 55.4356 26.7632C55.1178 26.8993 55.0531 27.3081 55.3156 27.5331C59.3898 31.0247 65.2709 31.5725 69.917 28.8194C70.2366 28.6301 70.7555 29.0342 70.6569 29.3922C70.5191 29.8924 70.3618 30.5565 70.1954 31.432C69.0332 37.3116 65.6832 36.8558 61.5355 35.3745C53.2858 32.3845 48.5892 34.9124 44.4234 29.9275C44.0978 29.5379 43.5289 29.4003 43.1526 29.7412C42.3301 30.4861 41.8457 31.5501 41.8457 32.6854C41.8457 34.0548 42.5468 35.2294 43.589 35.9392C43.7351 36.0387 43.9303 35.9967 44.0404 35.8584C44.2509 35.5942 44.4312 35.4042 44.6366 35.2713C44.9385 35.0761 45.0989 35.5222 44.8381 35.7697C44.0283 36.5381 43.7713 37.4722 43.213 39.2487C42.3014 42.1429 42.6889 45.1055 38.4273 45.8803C36.1712 45.9943 36.2167 47.5212 35.3963 49.8001C34.4527 52.5261 33.2197 53.7471 30.9515 56.1085C30.6007 56.4737 30.5689 57.0601 30.962 57.3792C31.8625 58.1101 32.7901 58.1416 33.7327 57.7535C36.1256 56.7508 37.9715 53.6515 39.7035 51.646C41.6405 49.4127 46.2896 50.3698 49.7991 48.182C51.6244 47.0628 52.747 45.6442 52.4986 43.5529C52.4511 43.1529 52.9058 42.9208 53.0576 43.2938C53.2826 43.8464 53.4336 44.4288 53.5036 45.0282C53.5271 45.2296 53.7074 45.3787 53.91 45.3689C57.6775 45.1861 62.5321 49.296 67.0804 50.4565C67.3899 50.5355 67.6116 50.1779 67.4389 49.9092C67.1698 49.4904 66.9397 49.0572 66.7543 48.615C66.5881 48.2162 66.4549 47.827 66.3523 47.4487C66.2458 47.0554 66.8226 46.9408 67.0314 47.2907C68.2463 49.3267 70.5468 51.189 73.705 51.4181C74.8216 51.5093 76.0523 51.3725 77.3285 50.9851C78.8553 50.5293 80.2683 49.9368 81.9547 50.2559C83.2081 50.4837 84.3703 51.1218 85.0996 52.1929C86.1146 53.6732 88.2482 54.0743 89.4063 52.5583C89.5842 52.3254 89.5987 52.0093 89.4825 51.7402C86.935 45.8383 80.5217 45.4304 77.7615 44.7181Z" fill="white"/>
<path d="M112.793 31.782C112.874 31.3376 113.242 31.0024 113.692 30.9643L116.696 30.7098C116.775 30.703 116.855 30.7231 116.922 30.7669C117.043 30.8458 117.105 30.9895 117.08 31.1317L114 48.2934C113.915 48.77 113.5 49.1168 113.016 49.1168H110.77C110.562 49.1168 110.405 48.9293 110.44 48.7243C110.495 48.408 110.101 48.1868 109.839 48.3708C108.814 49.0879 107.687 49.4464 106.457 49.4464C104.751 49.4464 103.341 48.8355 102.225 47.6139C101.1 46.3922 100.537 44.9024 100.537 43.1446C100.537 40.8946 101.231 39.0226 102.62 37.5284C104.009 36.0343 105.775 35.2872 107.92 35.2872C109.173 35.2872 110.237 35.6047 111.113 36.2396C111.448 36.482 111.968 36.3256 112.042 35.9192L112.793 31.782ZM107.59 45.9264C108.645 45.9264 109.511 45.5484 110.187 44.7926C110.847 44.0367 111.176 43.1095 111.176 42.0108C111.176 41.0528 110.908 40.2794 110.372 39.6905C109.836 39.1017 109.133 38.8072 108.263 38.8072C107.199 38.8072 106.338 39.1852 105.679 39.941C105.011 40.6881 104.677 41.6153 104.677 42.7228C104.677 43.672 104.949 44.4454 105.494 45.0431C106.03 45.6319 106.729 45.9264 107.59 45.9264Z" fill="white"/>
<path d="M121.624 33.4546C121 33.4546 120.459 33.2349 120.002 32.7954C119.554 32.356 119.33 31.8198 119.33 31.187C119.33 30.3872 119.624 29.7061 120.213 29.1436C120.785 28.5811 121.475 28.2998 122.283 28.2998C122.898 28.2998 123.43 28.5283 123.878 28.9854C124.327 29.4512 124.551 29.9873 124.551 30.5937C124.551 31.3848 124.261 32.0571 123.681 32.6108C123.109 33.1733 122.424 33.4546 121.624 33.4546ZM121.206 48.2945C121.12 48.7705 120.705 49.1167 120.222 49.1167H118.1C117.477 49.1167 117.005 48.5531 117.116 47.9398L119.182 36.4398C119.268 35.9634 119.682 35.6167 120.166 35.6167H122.299C122.923 35.6167 123.394 36.181 123.283 36.7945L121.206 48.2945Z" fill="white"/>
<path d="M135.764 35.6804C135.866 35.7225 135.945 35.8059 135.986 35.9085C136.03 36.0168 136.027 36.1382 135.978 36.2442L134.747 38.9305C134.706 39.0214 134.635 39.0958 134.546 39.1418C134.41 39.2125 134.248 39.2062 134.109 39.1404C133.683 38.9384 133.215 38.8449 132.705 38.8599C131.598 38.8599 130.745 39.3081 130.148 40.2046C129.928 40.5474 129.691 41.3472 129.436 42.604L128.446 48.2882C128.363 48.7671 127.947 49.1167 127.461 49.1167H125.319C124.696 49.1167 124.224 48.5531 124.334 47.9398L126.401 36.4398C126.486 35.9634 126.901 35.6167 127.385 35.6167H129.286C129.661 35.6167 129.945 35.9537 129.883 36.3229C129.83 36.6307 130.253 36.8322 130.487 36.6249C130.698 36.437 130.915 36.2723 131.137 36.1309C131.963 35.5859 132.846 35.3047 133.786 35.2871C134.468 35.2871 135.127 35.4182 135.764 35.6804Z" fill="white"/>
<path d="M142.956 35.2871C145.109 35.2871 146.731 35.977 147.821 37.3569C148.911 38.7368 149.258 40.3979 148.862 42.3403C148.848 42.4326 148.829 42.5286 148.805 42.6284C148.708 43.0338 148.322 43.2895 147.906 43.2895H139.788C139.263 43.2895 138.803 43.7018 138.899 44.2178C139.002 44.7706 139.251 45.2214 139.647 45.5703C140.236 46.0977 141.005 46.3613 141.954 46.3613C143.293 46.3613 144.495 45.8941 145.56 44.9595C145.624 44.9036 145.706 44.8716 145.791 44.8716C145.891 44.8716 145.986 44.9157 146.051 44.9923L147.342 46.5198C147.42 46.6116 147.453 46.7329 147.434 46.8515C147.42 46.9357 147.38 47.0137 147.318 47.0732C145.709 48.638 143.723 49.429 141.361 49.4463C139.366 49.4463 137.753 48.8135 136.522 47.5478C135.283 46.291 134.729 44.6826 134.861 42.7227C134.914 41.3779 135.283 40.1562 135.969 39.0576C136.637 37.9678 137.542 37.0977 138.684 36.4473C139.985 35.6738 141.409 35.2871 142.956 35.2871ZM139.83 39.6391C139.445 40.1889 139.929 40.8506 140.6 40.8506H144.142C144.674 40.8506 145.141 40.4223 144.996 39.9103C144.915 39.6228 144.784 39.3606 144.604 39.1235C144.164 38.5259 143.488 38.2314 142.574 38.2402C141.756 38.2402 141.053 38.4731 140.464 38.939C140.223 39.1466 140.012 39.38 139.83 39.6391Z" fill="white"/>
<path d="M156.724 49.4463C154.791 49.4463 153.213 48.8354 151.992 47.6138C150.761 46.4009 150.146 44.832 150.146 42.9072C150.146 41.6504 150.423 40.4902 150.976 39.4268C151.53 38.3545 152.304 37.4712 153.297 36.7769C154.738 35.7837 156.342 35.2871 158.109 35.2871C160.438 35.2871 162.224 36.0614 163.469 37.6099C163.54 37.6988 163.562 37.8169 163.532 37.9269C163.512 38.002 163.468 38.0686 163.407 38.1172L160.987 40.0487C160.924 40.0984 160.847 40.1255 160.767 40.1255C160.654 40.1255 160.549 40.0703 160.479 39.9818C159.856 39.1987 159.017 38.8071 157.964 38.8071C156.944 38.8071 156.1 39.1191 155.432 39.7432C154.659 40.4814 154.272 41.457 154.272 42.6699C154.272 43.6543 154.554 44.4409 155.116 45.0298C155.67 45.6274 156.412 45.9263 157.344 45.9263C158.31 45.9263 159.167 45.5735 159.916 44.8678C159.984 44.8038 160.073 44.7661 160.166 44.7661C160.266 44.7661 160.362 44.8087 160.429 44.8832L162.139 46.7912C162.216 46.8777 162.25 46.995 162.23 47.1095C162.216 47.1887 162.178 47.2619 162.119 47.317C160.608 48.7365 158.81 49.4463 156.724 49.4463Z" fill="white"/>
<path d="M174.752 37.8618C174.668 38.3399 174.252 38.6885 173.767 38.6885H171.553C171.069 38.6885 170.655 39.0351 170.569 39.5115L169.755 44.041C169.526 45.2803 169.939 45.8999 170.994 45.8999C171.433 45.8999 171.851 45.7685 172.249 45.5057C172.353 45.4371 172.488 45.4291 172.594 45.4946C172.659 45.5348 172.706 45.5982 172.725 45.6719L173.304 47.8274C173.344 47.9778 173.324 48.1381 173.248 48.2739C173.205 48.3514 173.145 48.4186 173.071 48.4683C172.106 49.1203 171.018 49.4463 169.807 49.4463C168.348 49.4463 167.206 49.0244 166.38 48.1807C165.554 47.3545 165.281 46.1108 165.562 44.4497L166.407 39.8336C166.516 39.2376 166.059 38.6885 165.453 38.6885C164.85 38.6885 164.393 38.144 164.497 37.5499L164.692 36.4434C164.776 35.9653 165.191 35.6167 165.677 35.6167H166.346C166.831 35.6167 167.246 35.2691 167.331 34.7919L167.775 32.2984C167.854 31.8528 168.223 31.516 168.673 31.4773L171.622 31.224C171.702 31.2171 171.782 31.2372 171.849 31.2809C171.97 31.3598 172.032 31.5036 172.006 31.6457L171.498 34.4378C171.387 35.0516 171.858 35.6167 172.482 35.6167H173.955C174.577 35.6167 175.048 36.1778 174.94 36.79L174.752 37.8618Z" fill="white"/>
<path d="M184.357 43.5796L185.633 36.4407C185.719 35.9639 186.133 35.6167 186.618 35.6167H188.726C189.348 35.6167 189.82 36.1796 189.71 36.7926L187.655 48.2926C187.57 48.7695 187.155 49.1167 186.671 49.1167H184.467C184.252 49.1167 184.089 48.9218 184.127 48.7098C184.185 48.3858 183.787 48.1568 183.516 48.3441C182.454 49.0789 181.319 49.4463 180.112 49.4463C178.494 49.4463 177.273 48.9145 176.447 47.8511C175.62 46.7876 175.357 45.3726 175.656 43.606L176.945 36.4397C177.03 35.9633 177.445 35.6167 177.929 35.6167H180.076C180.699 35.6167 181.171 36.1803 181.06 36.7935L179.874 43.395C179.751 44.1597 179.844 44.7705 180.151 45.2275C180.459 45.6758 180.942 45.8999 181.601 45.8999C182.524 45.8999 183.245 45.5571 183.764 44.8716C184.036 44.5727 184.234 44.1421 184.357 43.5796Z" fill="white"/>
<path d="M195.661 49.4727C194.325 49.4727 193.139 49.2397 192.101 48.7739C191.102 48.3444 190.382 47.7908 189.942 47.113C189.887 47.0291 189.87 46.9268 189.888 46.8284C189.904 46.7391 189.949 46.6576 190.015 46.5959L192.039 44.717C192.096 44.6638 192.171 44.6343 192.249 44.6343C192.354 44.6343 192.451 44.6884 192.515 44.772C192.813 45.164 193.277 45.5136 193.908 45.8208C194.602 46.1636 195.296 46.335 195.991 46.335C196.536 46.335 196.957 46.2295 197.256 46.0185C197.564 45.8076 197.718 45.5176 197.718 45.1484C197.718 44.9287 197.634 44.7266 197.467 44.542C197.309 44.3486 197.116 44.1948 196.887 44.0806C196.588 43.9399 196.298 43.8169 196.017 43.7114C195.446 43.5181 194.949 43.3247 194.527 43.1313C194.14 42.9468 193.723 42.7007 193.275 42.3931C192.378 41.7602 191.93 40.8769 191.93 39.7432C191.93 38.4248 192.466 37.3481 193.538 36.5132C194.611 35.6782 196.021 35.2607 197.77 35.2607C198.913 35.2607 199.968 35.4585 200.934 35.854C201.821 36.2233 202.489 36.7191 202.938 37.3414C203 37.4262 203.021 37.5329 203.003 37.6361C202.987 37.7285 202.94 37.8126 202.869 37.8748L200.922 39.5965C200.854 39.657 200.765 39.6904 200.674 39.6904C200.563 39.6904 200.459 39.6407 200.384 39.5594C200.036 39.1823 199.618 38.8832 199.128 38.6621C198.583 38.416 198.038 38.293 197.494 38.293C197.019 38.293 196.641 38.3896 196.36 38.583C196.078 38.7676 195.938 39.0137 195.938 39.3213C195.938 39.5146 196.021 39.6772 196.188 39.8091C196.399 39.9849 196.632 40.1255 196.887 40.231C196.931 40.2485 197.058 40.3057 197.269 40.4023C197.489 40.4902 197.691 40.5693 197.876 40.6396C198.113 40.7363 198.311 40.8154 198.469 40.8769C199.559 41.3691 200.368 41.9228 200.895 42.5381C201.422 43.1445 201.686 43.9048 201.686 44.8188C201.686 46.2427 201.132 47.3721 200.025 48.207C198.917 49.0508 197.463 49.4727 195.661 49.4727Z" fill="white"/>
</g>
<defs>
<clipPath id="clip0_1229_3263">
<rect width="173" height="36" fill="white" transform="translate(30.334 22)"/>
</clipPath>
</defs>
</svg>
