<svg width="232" height="81" viewBox="0 0 232 81" fill="none" xmlns="http://www.w3.org/2000/svg">
<g id="Logo">
<g id="Container">
<path id="Vector" d="M102.963 29.8242C102.972 29.8095 102.98 29.7947 102.988 29.7795L102.991 29.7745C103.038 29.6801 103.065 29.5736 103.065 29.4605C103.065 29.2072 102.931 28.9861 102.731 28.8656C102.729 28.8633 102.727 28.8594 102.725 28.8586C98.5189 26.5265 92.903 27.0779 89.1846 30.9666C87.0972 33.1495 86.0311 35.9573 85.9761 38.7786H85.9727V49.8557C85.9727 50.2376 86.2777 50.5477 86.6538 50.5477H89.8321C90.2083 50.5477 90.5133 50.2376 90.5133 49.8557V39.0094H90.5152C90.5152 37.2702 91.1539 35.5295 92.4405 34.1839C94.737 31.7826 98.1271 31.6023 100.465 32.8666C100.472 32.8709 100.48 32.8744 100.487 32.8783C100.492 32.881 100.498 32.8837 100.503 32.8865C100.592 32.9292 100.691 32.9537 100.795 32.9537C101.061 32.9537 101.291 32.7983 101.403 32.5725L102.963 29.8242Z" fill="white"/>
<path id="Vector_2" d="M72.3506 27.4697C66.0819 27.4697 61 32.6356 61 39.008V56.7777C61 57.1596 61.3046 57.4697 61.6811 57.4697H64.8595C65.2356 57.4697 65.5406 57.1596 65.5406 56.7777V48.2394C67.4377 49.688 69.7957 50.5467 72.351 50.5467C78.6193 50.5467 83.7019 45.3808 83.7019 39.0084C83.7015 32.6356 78.6193 27.4697 72.3506 27.4697ZM72.3506 45.9314C68.5894 45.9314 65.5402 42.8318 65.5402 39.008C65.5402 35.1846 68.5894 32.085 72.3506 32.085C76.1118 32.085 79.1613 35.1846 79.1613 39.008C79.1613 42.8314 76.1118 45.9314 72.3506 45.9314Z" fill="white"/>
<path id="Vector_3" d="M139.286 27.4697C133.018 27.4697 127.936 32.6356 127.936 39.008V56.7777C127.936 57.1596 128.241 57.4697 128.617 57.4697H131.795C132.171 57.4697 132.476 57.1596 132.476 56.7777V48.2398C134.373 49.6884 136.731 50.5471 139.287 50.5471C145.555 50.5471 150.638 45.3812 150.638 39.0088C150.637 32.6356 145.555 27.4697 139.286 27.4697ZM139.286 45.9314C135.525 45.9314 132.476 42.8318 132.476 39.008C132.476 35.1846 135.525 32.085 139.286 32.085C143.047 32.085 146.097 35.1846 146.097 39.008C146.097 42.8314 143.047 45.9314 139.286 45.9314Z" fill="white"/>
<path id="Vector_4" d="M125.586 39.2388C125.586 32.8661 120.504 27.4697 114.235 27.4697C107.967 27.4697 102.885 32.6356 102.885 39.008C102.885 45.3804 107.967 50.5463 114.235 50.5463C117.784 50.5463 120.71 48.8934 122.546 46.8659C122.546 46.8659 122.546 46.8655 122.547 46.8651C122.548 46.8635 122.55 46.862 122.551 46.8604C122.671 46.7353 122.745 46.5647 122.745 46.3763C122.745 46.177 122.662 45.9978 122.529 45.8715L122.52 45.863C122.503 45.8471 122.485 45.8323 122.466 45.8183L120.037 43.8091C119.918 43.7022 119.761 43.6365 119.589 43.6365C119.374 43.6365 119.184 43.7372 119.059 43.8938C117.98 45.0097 116.275 45.9314 114.235 45.9314C110.474 45.9314 107.425 42.8318 107.425 39.008C107.425 35.1846 110.474 32.085 114.235 32.085C117.2 32.085 119.721 34.0119 120.656 36.7004H114.802C114.426 36.7004 114.121 37.0104 114.121 37.3928V40.6236C114.121 41.006 114.426 41.3161 114.802 41.3161H124.677C124.696 41.3161 124.714 41.3145 124.732 41.3133C124.751 41.3149 124.769 41.3161 124.787 41.3161C125.09 41.3161 125.346 41.1156 125.435 40.8381L125.443 40.8393C125.446 40.8144 125.45 40.7903 125.454 40.7659C125.459 40.7422 125.463 40.7185 125.465 40.694C125.545 40.178 125.586 39.8096 125.586 39.2388Z" fill="white"/>
<path id="Vector_5" d="M169.923 29.7776L169.926 29.7725L169.925 29.7721C169.973 29.6777 170 29.5716 170 29.4586C170 29.2052 169.865 28.9841 169.666 28.8637C169.663 28.8613 169.662 28.8575 169.659 28.8567C165.453 26.5245 159.838 27.0759 156.119 30.9646C154.032 33.1476 152.966 35.9553 152.911 38.7766H152.907V49.8537C152.907 50.2357 153.212 50.5457 153.588 50.5457H156.767C157.143 50.5457 157.448 50.2357 157.448 49.8537V39.0074H157.449C157.449 37.2682 158.088 35.5275 159.375 34.1819C161.671 31.7806 165.061 31.6003 167.399 32.8647C167.406 32.869 167.414 32.8725 167.421 32.8763C167.427 32.8791 167.432 32.8818 167.437 32.8845H167.438C167.527 32.9272 167.625 32.9521 167.73 32.9521C167.995 32.9521 168.225 32.7967 168.337 32.5709L169.898 29.8234C169.907 29.8079 169.915 29.7931 169.923 29.7776Z" fill="white"/>
</g>
</g>
</svg>
